<?xml version="1.0" encoding="UTF-8" standalone="no"?>
<!-- Uploaded to: SVG Repo, www.svgrepo.com, Generator: SVG Repo Mixer Tools -->

<svg
   width="800px"
   height="800px"
   viewBox="0 0 24 24"
   version="1.1"
   id="svg6"
   sodipodi:docname="logo.svg"
   inkscape:version="1.2.2 (b0a8486541, 2022-12-01)"
   xmlns:inkscape="http://www.inkscape.org/namespaces/inkscape"
   xmlns:sodipodi="http://sodipodi.sourceforge.net/DTD/sodipodi-0.dtd"
   xmlns="http://www.w3.org/2000/svg"
   xmlns:svg="http://www.w3.org/2000/svg">
  <defs
     id="defs10" />
  <sodipodi:namedview
     id="namedview8"
     pagecolor="#ffffff"
     bordercolor="#000000"
     borderopacity="0.25"
     inkscape:showpageshadow="2"
     inkscape:pageopacity="0.0"
     inkscape:pagecheckerboard="0"
     inkscape:deskcolor="#d1d1d1"
     showgrid="false"
     inkscape:zoom="1.28375"
     inkscape:cx="405.45278"
     inkscape:cy="405.45278"
     inkscape:window-width="2502"
     inkscape:window-height="1371"
     inkscape:window-x="58"
     inkscape:window-y="32"
     inkscape:window-maximized="1"
     inkscape:current-layer="svg6" />
  <path
     d="M3.5 12c.015 0 .028-.004.042-.004l.94 4.226a2.497 2.497 0 1 0 3.345 3.173l7.182 1.197a2.491 2.491 0 1 0 3.527-2.36l1.902-8.238c.021 0 .04.006.062.006a2.5 2.5 0 1 0-2.03-3.95l-4.53-2.012a2.5 2.5 0 1 0-4.692.528L5.151 7.637A2.495 2.495 0 1 0 3.5 12zm1.018-.222a2.51 2.51 0 0 0 1.26-1.26l4.226.94c0 .014-.004.027-.004.042a2.484 2.484 0 0 0 .416 1.377l-3.54 3.54A2.483 2.483 0 0 0 5.5 16c-.014 0-.028.004-.042.004zm7.184-2.635a2.501 2.501 0 0 0-1.48 1.339l-4.226-.94c0-.014.004-.027.004-.042a2.472 2.472 0 0 0-.247-1.065l4.096-3.072a2.477 2.477 0 0 0 1.457.617zM14 11v1a1 1 0 0 1-1 1h-1a1 1 0 0 1-1-1v-1a1 1 0 0 1 1-1h1a1 1 0 0 1 1 1zm1.173 8.605L7.99 18.408a2.483 2.483 0 0 0-.407-1.285l3.54-3.54a2.405 2.405 0 0 0 2.123.29l2.632 4.74a2.494 2.494 0 0 0-.706.992zM6 20H5a1 1 0 0 1-1-1v-1a1 1 0 0 1 1-1h1a1 1 0 0 1 1 1v1a1 1 0 0 1-1 1zm13 0v1a1 1 0 0 1-1 1h-1a1 1 0 0 1-1-1v-1a1 1 0 0 1 1-1h1a1 1 0 0 1 1 1zm-1.438-1.994c-.02 0-.04-.006-.062-.006a2.466 2.466 0 0 0-.747.127l-2.632-4.74a2.411 2.411 0 0 0 .784-2.53l3.638-1.82a2.502 2.502 0 0 0 .92.731zM20 6h1a1 1 0 0 1 1 1v1a1 1 0 0 1-1 1h-1a1 1 0 0 1-1-1V7a1 1 0 0 1 1-1zm-1.939.963a2.301 2.301 0 0 0 .034 1.18l-3.638 1.82a2.483 2.483 0 0 0-1.763-.943l-.396-3.163a2.499 2.499 0 0 0 1.231-.908zM10 4V3a1 1 0 0 1 1-1h1a1 1 0 0 1 1 1v1a1 1 0 0 1-1 1h-1a1 1 0 0 1-1-1zM2 9a1 1 0 0 1 1-1h1a1 1 0 0 1 1 1v1a1 1 0 0 1-1 1H3a1 1 0 0 1-1-1z"
     id="path2" />
  <path
     fill="none"
     d="M0 0h24v24H0z"
     id="path4" />
  <path
     style="fill:#668000;stroke-width:0.0267928"
     d="M 2.8109393,11.178177 C 2.4613494,11.114138 2.1339285,10.875933 1.9708972,10.567034 L 1.8785941,10.392145 V 9.5500721 8.7079988 l 0.08974,-0.1700345 C 2.136222,8.2198634 2.4743904,7.9813374 2.8477648,7.9176611 c 0.101605,-0.017328 0.4362697,-0.024355 0.8738568,-0.018349 0.642069,0.00881 0.7244133,0.015 0.8700565,0.065377 0.3179461,0.1099755 0.5923923,0.3568527 0.7169585,0.6449376 0.063712,0.1473458 0.065384,0.1713996 0.065384,0.9404454 0,0.7690459 -0.00167,0.7930999 -0.065384,0.9404449 -0.1412175,0.326595 -0.4779097,0.599054 -0.8335122,0.674495 -0.1511015,0.03205 -0.3429875,0.04052 -0.8681646,0.03831 -0.3708042,-0.0016 -0.729014,-0.01288 -0.7960213,-0.02515 z"
     id="path308" />
  <path
     style="fill:#0044aa;stroke-width:0.0266827"
     d="M 19.766527,9.1499466 C 19.375769,9.0422536 19.062224,8.6968017 18.971522,8.2740407 18.949456,8.1712017 18.94257,7.8971481 18.94914,7.3829562 c 0.0084,-0.6541285 0.01543,-0.757043 0.05943,-0.8640818 0.144663,-0.3519582 0.404433,-0.6036619 0.726355,-0.7038011 0.164983,-0.051321 0.233745,-0.054717 0.952605,-0.047041 l 0.774787,0.00827 0.174636,0.08474 c 0.301722,0.1464068 0.500072,0.3713838 0.602822,0.683747 0.05288,0.1607456 0.05547,0.2140132 0.04791,0.9833542 l -0.008,0.8134026 -0.08275,0.1788483 c -0.144987,0.3132946 -0.373772,0.5182909 -0.69018,0.6183761 -0.151167,0.047817 -0.243023,0.053174 -0.884399,0.051582 -0.533233,-0.00132 -0.751447,-0.011626 -0.855867,-0.040404 z"
     id="path310" />
  <path
     style="fill:#0044aa;stroke-width:0.0265745"
     d="M 4.83951,20.133144 C 4.3951777,20.047603 4.015797,19.682936 3.930285,19.25917 3.884128,19.030432 3.895169,17.920979 3.94568,17.712265 c 0.1036108,-0.428124 0.4972182,-0.760347 0.9783161,-0.825743 0.2294541,-0.03119 1.2195932,-0.02965 1.4594703,0.0022 0.3813292,0.05073 0.7238459,0.281085 0.8890042,0.597872 0.1206229,0.231364 0.1482425,0.479329 0.1325567,1.190079 -0.011783,0.533897 -0.019276,0.609305 -0.073749,0.742137 -0.1286942,0.313823 -0.3849937,0.558169 -0.7024945,0.669729 -0.1524523,0.05357 -0.2122119,0.05763 -0.9169162,0.06233 -0.4146096,0.0027 -0.8071705,-0.0053 -0.8723579,-0.01778 z"
     id="path312" />
  <path
     style="fill:#d40000;stroke-width:0.0289216"
     d="M 11.533009,13.273391 C 11.187698,13.166 10.924956,12.946211 10.766892,12.632526 l -0.109976,-0.218252 v -0.918056 -0.918056 l 0.0811,-0.169855 c 0.165378,-0.346363 0.458463,-0.5935312 0.816051,-0.6882016 0.156993,-0.041565 0.30305,-0.047121 1.01565,-0.038622 0.76745,0.00915 0.844161,0.01466 0.984704,0.070698 0.331415,0.13215 0.617471,0.4205796 0.729544,0.7355966 0.04614,0.129696 0.05254,0.254019 0.05254,1.02128 0,0.83922 -0.0026,0.879808 -0.06549,1.031143 -0.138912,0.334105 -0.466413,0.631742 -0.803009,0.729782 -0.197615,0.05756 -1.752069,0.0603 -1.934988,0.0034 z"
     id="path314" />
  <path
     style="fill:#0044aa;stroke-width:0.0304415"
     d="m 16.572939,22.193382 c -0.35278,-0.127309 -0.603144,-0.345644 -0.766682,-0.668596 l -0.09876,-0.195031 -0.0096,-0.877626 c -0.01089,-0.993614 -5.5e-4,-1.0606 0.210553,-1.366202 0.140944,-0.204038 0.389352,-0.394054 0.638868,-0.488691 0.154023,-0.05842 0.2344,-0.06425 1.016949,-0.07379 0.564683,-0.0069 0.912625,0.0012 1.037275,0.02407 0.422005,0.07747 0.762459,0.328657 0.957309,0.706295 l 0.11395,0.220845 0.01002,0.830537 c 0.0083,0.688653 0.0014,0.862201 -0.04051,1.015888 -0.101166,0.370904 -0.357864,0.658566 -0.740567,0.829914 l -0.204559,0.09158 -0.975591,0.0066 c -0.928057,0.0063 -0.984024,0.0036 -1.148679,-0.05583 z"
     id="path527" />
  <path
     style="fill:#668000;stroke-width:0.0294037"
     d="M 10.338758,5.2390452 C 9.9659493,5.144862 9.6740889,4.9042003 9.5003492,4.5477095 L 9.3933728,4.3282209 9.3839826,3.4866222 C 9.3759166,2.7697915 9.3818156,2.6202403 9.4236262,2.4778557 9.5339253,2.1020113 9.7396074,1.8547033 10.080947,1.6875071 l 0.224997,-0.1102087 0.901704,-0.00892 c 0.86598,-0.00858 0.908766,-0.0064 1.079968,0.055187 0.340224,0.1223767 0.578176,0.3382094 0.7355,0.6671308 l 0.09271,0.193834 0.009,0.8741359 c 0.0078,0.7631009 0.0025,0.8945477 -0.042,1.0348315 -0.112755,0.3550902 -0.402924,0.6650468 -0.755407,0.8069096 -0.146587,0.058997 -0.212826,0.06361 -0.998975,0.069578 -0.604459,0.00459 -0.883648,-0.00413 -0.989694,-0.030926 z"
     id="path529" />
  <path
     style="fill:#241c1c;stroke-width:0.778968"
     d="m 573.70983,765.24434 c -30.96024,-3.54228 -58.05539,-25.42237 -68.3755,-55.21513 -2.15463,-6.22014 -3.36692,-11.76315 -4.47208,-20.44791 -0.25897,-2.03505 -0.62891,-3.70009 -0.82208,-3.70009 -0.19317,0 -53.97464,-8.93866 -119.51437,-19.86368 -65.53972,-10.92503 -119.30375,-19.86368 -119.4756,-19.86368 -0.17187,0 -1.56912,2.64611 -3.105,5.88026 -18.73336,39.44711 -64.88207,57.73116 -105.16884,41.66772 -11.83442,-4.7187 -20.24917,-10.49227 -29.68211,-20.36562 -9.59196,-10.03978 -15.61068,-20.51265 -19.50846,-33.94567 -10.65624,-36.72483 6.41228,-77.2184 40.1186,-95.17787 3.49282,-1.86106 6.20294,-3.78495 6.02249,-4.27532 -0.18046,-0.49037 -7.30212,-32.35067 -15.82593,-70.80066 l -15.49783,-69.90907 -5.50446,-0.003 C 93.771029,399.21288 72.756118,389.86813 57.725274,374.69024 30.413465,347.11125 26.185609,303.56377 47.680107,271.22367 c 9.583913,-14.41972 24.743889,-26.37304 40.593738,-32.0073 11.141014,-3.96037 16.016865,-4.74514 28.960815,-4.66125 10.4119,0.0675 13.14633,0.36177 19.86368,2.1379 9.40042,2.48554 21.33585,8.27933 29.04458,14.09907 l 5.67553,4.28476 68.45558,-51.34859 68.45558,-51.34858 -2.28534,-5.8855 c -4.36075,-11.23032 -5.66168,-18.3693 -5.61585,-30.81745 0.035,-9.5045 0.35361,-12.47726 2.00985,-18.752697 4.14959,-15.722593 11.1927,-28.245551 21.99932,-39.115744 18.33473,-18.442605 45.20758,-27.477693 70.28716,-23.631685 35.92093,5.508552 63.77684,32.765587 70.01954,68.514176 0.94703,5.42314 1.12033,9.48887 0.71954,16.88079 -0.29038,5.3554 -0.59367,11.06743 -0.67398,12.6934 l -0.14603,2.9563 75.43482,33.5343 75.43482,33.53428 1.24324,-1.82652 c 0.68379,-1.00459 4.07015,-4.75037 7.52526,-8.32397 10.63853,-11.00336 24.10153,-18.71604 39.77763,-22.78779 10.09821,-2.62293 28.05153,-2.63047 38.087,-0.016 15.25471,3.97421 26.6562,10.21622 37.50901,20.53518 11.43398,10.87153 18.93593,23.17854 23.38719,38.36684 2.77075,9.45418 3.48941,26.23954 1.56124,36.46503 -3.29004,17.44773 -11.46344,32.6255 -24.07946,44.71485 -15.03842,14.41064 -32.21794,21.96197 -53.09594,23.33856 l -7.01071,0.46225 -31.48299,136.40936 c -17.31566,75.02515 -31.62076,136.80394 -31.78912,137.28621 -0.16836,0.48226 2.08078,2.18439 4.99809,3.7825 20.02496,10.96975 34.29992,29.04696 40.42113,51.18765 2.73399,9.88894 3.42541,25.99822 1.54393,35.97181 -6.84372,36.2782 -35.62651,62.92526 -72.86243,67.45594 -7.3905,0.89923 -9.55928,0.89109 -17.9367,-0.0674 z m 40.7448,-34.82788 c 9.13886,-4.46846 16.1973,-13.21516 18.41011,-22.81347 0.43315,-1.87882 0.79611,-12.71922 0.80657,-24.08977 0.0246,-26.68795 -1.0472,-31.2566 -9.40616,-40.09496 -4.4231,-4.67678 -9.48171,-7.63622 -15.91848,-9.31278 -5.66637,-1.4759 -42.23496,-1.7143 -48.81466,-0.31823 -11.60198,2.46168 -21.44667,11.37397 -24.81553,22.46522 -1.48785,4.89842 -1.58198,6.89983 -1.36095,28.93535 l 0.23746,23.67294 2.4994,5.2766 c 2.85977,6.03737 9.05479,12.70957 14.30712,15.40916 7.15702,3.67855 8.28371,3.79792 34.21587,3.62544 l 24.53749,-0.1632 z M 207.83385,666.02402 c 14.07976,-3.66732 23.63285,-14.34388 25.44625,-28.43882 0.96291,-7.48443 0.97425,-34.50817 0.0175,-41.87373 -1.97444,-15.20113 -13.78032,-27.03221 -28.93848,-29.00026 -7.42441,-0.96393 -34.42796,-0.95835 -41.94438,0.009 -14.09494,1.8134 -24.77151,11.36649 -28.43882,25.44625 -1.43742,5.51863 -1.65756,41.42812 -0.29373,47.91236 2.71284,12.89801 12.41228,22.91544 25.19491,26.0209 6.07779,1.47657 43.2179,1.41938 48.95668,-0.0754 z m 300.03327,-16.39448 c 3.01258,-6.81198 9.9193,-16.8432 16.01607,-23.26151 3.08118,-3.24368 5.42465,-6.35664 5.2088,-6.91913 -0.64754,-1.68747 -86.32183,-155.90893 -87.00607,-156.61877 -0.34765,-0.36066 -3.73719,0.15758 -7.53232,1.15164 -9.64,2.52503 -27.13526,2.57666 -36.8905,0.10888 -7.9389,-2.00831 -15.84918,-5.22283 -22.20059,-9.02173 l -4.67381,-2.79549 -59.20155,59.17624 -59.20156,59.17622 2.61556,4.7542 c 5.67423,10.31382 9.58639,22.59032 10.66366,33.46296 l 0.50956,5.14295 118.90893,19.8979 c 65.39989,10.94385 119.3515,19.9343 119.89244,19.97877 0.54095,0.0445 1.84207,-1.86044 2.89138,-4.23313 z m 69.40939,-48.79243 8.62996,-0.90169 31.34275,-135.99498 c 17.23851,-74.79723 31.51422,-136.59378 31.7238,-137.32566 0.28582,-0.99814 -0.77247,-1.91298 -4.23478,-3.66075 -6.6269,-3.34525 -16.4679,-10.99438 -21.92772,-17.04379 l -4.708,-5.21641 -60.801,30.37363 c -58.77923,29.36363 -60.78688,30.43839 -60.37594,32.32105 3.32878,15.25031 3.34626,27.21267 0.0587,40.19769 -3.52544,13.92479 -9.91381,25.25663 -20.38729,36.16346 l -6.37957,6.64352 43.96247,79.13143 43.96246,79.13143 5.25207,-1.45862 c 2.88864,-0.80224 9.13556,-1.86438 13.88204,-2.36031 z m -288.58777,-112.50539 58.89704,-58.89322 -4.1063,-7.90328 c -5.98632,-11.52169 -9.69175,-25.34733 -9.69175,-36.16165 v -3.81193 l -69.52288,-15.44427 c -38.23759,-8.49434 -70.08267,-15.5897 -70.76686,-15.76747 -0.82663,-0.21476 -1.59908,0.53414 -2.30248,2.23231 -1.64009,3.95951 -9.46291,15.39079 -13.85029,20.23905 -4.85078,5.36033 -13.36369,11.94226 -21.23277,16.41654 l -5.91286,3.36201 15.67137,70.49659 15.67139,70.49659 7.41677,0.53086 c 12.48171,0.89339 24.42419,4.46589 34.60466,10.35174 2.57059,1.48619 5.02348,2.71278 5.45086,2.72575 0.42739,0.013 27.28073,-26.47836 59.6741,-58.86962 z m 154.99067,-56.35176 c 11.06942,-3.44519 19.8717,-12.93277 22.47353,-24.22321 1.24881,-5.4191 1.05214,-44.66412 -0.24831,-49.54823 -3.21667,-12.08095 -13.2667,-21.73414 -25.3983,-24.39541 -2.97358,-0.65231 -11.07639,-0.855 -26.48491,-0.66252 -19.65385,0.24551 -22.6027,0.4468 -25.70594,1.75478 -10.17108,4.28699 -17.41412,11.94954 -20.31123,21.48765 -1.4953,4.92294 -1.58706,6.87843 -1.35706,28.92252 l 0.24668,23.64259 2.48118,5.06329 c 4.5154,9.21447 11.06378,15.00483 20.31293,17.96155 3.89079,1.24378 7.36168,1.43429 26.79569,1.47076 20.00369,0.0375 22.83245,-0.11576 27.19574,-1.47377 z M 138.5683,366.52333 c 13.19514,-2.16088 24.05417,-11.90953 27.31887,-24.52536 1.73107,-6.68937 1.73107,-44.00569 0,-50.69507 -3.2647,-12.61583 -14.12373,-22.36447 -27.31887,-24.52536 -6.13271,-1.00431 -37.56002,-0.95729 -43.923704,0.0657 -9.6505,1.5514 -17.964126,7.05892 -23.268263,15.41449 -4.375975,6.89345 -4.77458,9.79886 -4.77458,34.80161 0,20.27488 0.158781,23.17773 1.477427,27.01044 1.975631,5.74227 4.531479,9.6234 9.211793,13.9884 8.414868,7.84795 13.582438,9.08092 38.385757,9.15871 10.06816,0.0316 20.36937,-0.28053 22.89157,-0.69358 z m 204.1032,-20.07737 c 4.87724,-10.30423 17.24355,-24.31858 27.63516,-31.31803 4.26545,-2.87308 14.59941,-8.12224 18.96899,-9.63536 0.98932,-0.34258 1.24557,-1.04719 0.95981,-2.63916 -0.4253,-2.36937 -12.82553,-101.78418 -12.82553,-102.82451 0,-0.35111 -4.00477,-1.40872 -8.89947,-2.35023 -13.58672,-2.61347 -28.26371,-9.29219 -36.70205,-16.70114 -1.38087,-1.21243 -2.90469,-2.2044 -3.38626,-2.2044 -0.72867,0 -133.28754,98.85783 -136.17787,101.55676 -0.72926,0.68095 -0.58543,1.66267 0.64213,4.38287 2.71224,6.01017 5.31182,16.39472 6.3303,25.28765 l 0.97803,8.53983 68.54917,15.33948 c 37.70205,8.43672 69.44822,15.37276 70.54707,15.41343 1.57575,0.0583 2.29001,-0.54325 3.38052,-2.84719 z m 200.07636,-44.29193 c 33.09529,-16.54168 60.28266,-30.1759 60.41636,-30.29827 0.1337,-0.12237 -0.27453,-2.80055 -0.90717,-5.9515 -1.8712,-9.31982 -2.25138,-16.32307 -1.30869,-24.10775 0.48802,-4.02995 0.95626,-7.95137 1.04055,-8.71426 0.12441,-1.126 -13.84872,-7.61753 -74.23818,-34.48895 -40.91529,-18.20603 -75.0925,-33.27775 -75.94937,-33.49271 -1.14679,-0.2877 -2.05225,0.3419 -3.43101,2.3857 -3.05216,4.52434 -14.39444,14.77165 -20.70031,18.70192 -3.22565,2.01046 -8.58014,4.84069 -11.89888,6.2894 -5.57675,2.43438 -6.01953,2.79711 -5.84226,4.78609 0.10548,1.18364 2.9974,24.6553 6.42648,52.15923 3.42908,27.50395 6.23469,50.31574 6.23469,50.69289 0,0.37713 2.84903,1.12184 6.33118,1.6549 18.1151,2.77311 36.25443,12.39577 48.05035,25.49004 2.4368,2.70501 4.69434,4.92964 5.01676,4.94362 0.32242,0.0139 27.6642,-13.50868 60.7595,-30.05035 z m 166.14398,-3.06335 c 9.56619,-2.47552 16.90583,-8.65549 21.59703,-18.18466 l 2.51989,-5.11864 v -25.72231 -25.72232 l -2.43485,-5.0633 c -4.44374,-9.24078 -11.04691,-15.04634 -20.39896,-17.9349 -4.46824,-1.38009 -7.2737,-1.53929 -27.12676,-1.53929 -20.21681,0 -22.55288,0.13805 -26.85364,1.58686 -11.29569,3.80525 -19.07025,12.1668 -22.08907,23.75683 -1.71734,6.59332 -1.71734,43.20615 0,49.79947 3.07568,11.80836 12.06068,20.98118 23.73288,24.22901 5.5256,1.53751 45.03625,1.47038 51.05348,-0.0867 z M 408.15193,165.89452 c 11.87092,-3.09198 20.8127,-11.6614 24.15122,-23.1455 1.10889,-3.81445 1.25998,-7.8513 1.04921,-28.03296 l -0.24623,-23.576819 -2.4994,-5.276596 c -3.28347,-6.931875 -9.44013,-13.088529 -16.372,-16.372003 l -5.2766,-2.499405 -23.9996,-0.236546 c -27.14681,-0.267565 -28.80264,-0.03385 -36.91674,5.210544 -5.39411,3.486383 -10.41957,9.631265 -12.93263,15.813395 -1.56662,3.853906 -1.70081,5.71254 -1.9444,26.93281 -0.28518,24.84266 0.0427,27.52927 4.32552,35.44304 2.40111,4.43676 8.79389,10.6717 13.29768,12.96937 6.70092,3.41855 10.31816,3.85946 32.10583,3.91349 16.1914,0.0401 21.66769,-0.20762 25.25814,-1.14282 z"
     id="path1101"
     transform="scale(0.03)" />
</svg>
