<?xml version="1.0" encoding="UTF-8" standalone="no"?>
<!DOCTYPE svg PUBLIC "-//W3C//DTD SVG 1.1//EN"
 "http://www.w3.org/Graphics/SVG/1.1/DTD/svg11.dtd">
<!-- Generated by graphviz version 2.43.0 (0)
 -->
<!-- Title: IssunDBArchitecture Pages: 1 -->
<svg width="737pt" height="502pt"
 viewBox="0.00 0.00 737.00 502.34" xmlns="http://www.w3.org/2000/svg" xmlns:xlink="http://www.w3.org/1999/xlink">
<g id="graph0" class="graph" transform="scale(1 1) rotate(0) translate(4 498.34)">
<title>IssunDBArchitecture</title>
<polygon fill="white" stroke="transparent" points="-4,4 -4,-498.34 733,-498.34 733,4 -4,4"/>
<g id="clust1" class="cluster">
<title>cluster_core</title>
<path fill="white" stroke="#2563eb" stroke-width="1.4" d="M20,-345C20,-345 130,-345 130,-345 136,-345 142,-351 142,-357 142,-357 142,-424 142,-424 142,-430 136,-436 130,-436 130,-436 20,-436 20,-436 14,-436 8,-430 8,-424 8,-424 8,-357 8,-357 8,-351 14,-345 20,-345"/>
<text text-anchor="middle" x="75" y="-420.8" font-family="Helvetica,Arial,sans-serif" font-size="14.00">Storage Engine</text>
</g>
<g id="clust2" class="cluster">
<title>cluster_ext</title>
<path fill="white" stroke="#65a30d" stroke-width="1.4" d="M201,-273C201,-273 524,-273 524,-273 530,-273 536,-279 536,-285 536,-285 536,-424 536,-424 536,-430 530,-436 524,-436 524,-436 201,-436 201,-436 195,-436 189,-430 189,-424 189,-424 189,-285 189,-285 189,-279 195,-273 201,-273"/>
<text text-anchor="middle" x="362.5" y="-420.8" font-family="Helvetica,Arial,sans-serif" font-size="14.00">Extension Crates</text>
</g>
<g id="clust3" class="cluster">
<title>cluster_facade</title>
<path fill="white" stroke="#d97706" stroke-width="1.4" d="M418.5,-174C418.5,-174 497.5,-174 497.5,-174 503.5,-174 509.5,-180 509.5,-186 509.5,-186 509.5,-253 509.5,-253 509.5,-259 503.5,-265 497.5,-265 497.5,-265 418.5,-265 418.5,-265 412.5,-265 406.5,-259 406.5,-253 406.5,-253 406.5,-186 406.5,-186 406.5,-180 412.5,-174 418.5,-174"/>
<text text-anchor="middle" x="458" y="-249.8" font-family="Helvetica,Arial,sans-serif" font-size="14.00">Public Facade</text>
</g>
<g id="clust4" class="cluster">
<title>cluster_consumers</title>
<path fill="white" stroke="#7c3aed" stroke-width="1.4" d="M595,-8C595,-8 709,-8 709,-8 715,-8 721,-14 721,-20 721,-20 721,-447 721,-447 721,-453 715,-459 709,-459 709,-459 595,-459 595,-459 589,-459 583,-453 583,-447 583,-447 583,-20 583,-20 583,-14 589,-8 595,-8"/>
<text text-anchor="middle" x="652" y="-443.8" font-family="Helvetica,Arial,sans-serif" font-size="14.00">Consumers</text>
</g>
<!-- core -->
<g id="node1" class="node">
<title>core</title>
<polygon fill="#dbeafe" stroke="#2563eb" stroke-width="1.4" points="126,-397 24,-397 24,-361 126,-361 126,-397"/>
<text text-anchor="middle" x="75" y="-375.3" font-family="Helvetica,Arial,sans-serif" font-size="14.00">issundb&#45;core</text>
</g>
<!-- vector -->
<g id="node2" class="node">
<title>vector</title>
<polygon fill="#ecfccb" stroke="#65a30d" stroke-width="1.4" points="317,-325 205,-325 205,-289 317,-289 317,-325"/>
<text text-anchor="middle" x="261" y="-303.3" font-family="Helvetica,Arial,sans-serif" font-size="14.00">issundb&#45;vector</text>
</g>
<!-- vector&#45;&gt;core -->
<g id="edge1" class="edge">
<title>vector&#45;&gt;core</title>
<path fill="none" stroke="#475569" stroke-width="1.2" d="M213.57,-325.17C194.77,-332.53 172.57,-341.21 151.55,-349.44"/>
<polygon fill="#475569" stroke="#475569" stroke-width="1.2" points="150.03,-346.27 142,-353.18 152.58,-352.79 150.03,-346.27"/>
</g>
<!-- text -->
<g id="node3" class="node">
<title>text</title>
<polygon fill="#ecfccb" stroke="#65a30d" stroke-width="1.4" points="309.5,-397 212.5,-397 212.5,-361 309.5,-361 309.5,-397"/>
<text text-anchor="middle" x="261" y="-375.3" font-family="Helvetica,Arial,sans-serif" font-size="14.00">issundb&#45;text</text>
</g>
<!-- text&#45;&gt;core -->
<g id="edge2" class="edge">
<title>text&#45;&gt;core</title>
<path fill="none" stroke="#475569" stroke-width="1.2" d="M212.14,-379C193.83,-379 172.48,-379 152.18,-379"/>
<polygon fill="#475569" stroke="#475569" stroke-width="1.2" points="152,-375.5 142,-379 152,-382.5 152,-375.5"/>
</g>
<!-- retrieval -->
<g id="node4" class="node">
<title>retrieval</title>
<polygon fill="#d9f99d" stroke="#4d7c0f" stroke-width="1.4" points="520,-325 396,-325 396,-289 520,-289 520,-325"/>
<text text-anchor="middle" x="458" y="-303.3" font-family="Helvetica,Arial,sans-serif" font-size="14.00">issundb&#45;retrieval</text>
</g>
<!-- retrieval&#45;&gt;core -->
<g id="edge3" class="edge">
<title>retrieval&#45;&gt;core</title>
<path fill="none" stroke="#475569" stroke-width="1.2" d="M423.6,-325.04C414.41,-330.45 404.61,-336.64 396,-343 357.79,-371.22 361.3,-397.84 317,-415 264.07,-435.5 200.41,-424.62 151.82,-409.62"/>
<polygon fill="#475569" stroke="#475569" stroke-width="1.2" points="152.59,-406.2 142,-406.47 150.45,-412.86 152.59,-406.2"/>
</g>
<!-- retrieval&#45;&gt;vector -->
<g id="edge4" class="edge">
<title>retrieval&#45;&gt;vector</title>
<path fill="none" stroke="#475569" stroke-width="1.2" d="M395.84,-307C374.14,-307 349.64,-307 327.6,-307"/>
<polygon fill="#475569" stroke="#475569" stroke-width="1.2" points="327.32,-303.5 317.32,-307 327.32,-310.5 327.32,-303.5"/>
</g>
<!-- retrieval&#45;&gt;text -->
<g id="edge5" class="edge">
<title>retrieval&#45;&gt;text</title>
<path fill="none" stroke="#475569" stroke-width="1.2" d="M408.04,-325.08C381.1,-335.02 347.51,-347.43 319.34,-357.83"/>
<polygon fill="#475569" stroke="#475569" stroke-width="1.2" points="317.8,-354.67 309.63,-361.41 320.22,-361.23 317.8,-354.67"/>
</g>
<!-- cypher -->
<g id="node5" class="node">
<title>cypher</title>
<polygon fill="#d9f99d" stroke="#4d7c0f" stroke-width="1.4" points="516,-397 400,-397 400,-361 516,-361 516,-397"/>
<text text-anchor="middle" x="458" y="-375.3" font-family="Helvetica,Arial,sans-serif" font-size="14.00">issundb&#45;cypher</text>
</g>
<!-- cypher&#45;&gt;core -->
<g id="edge6" class="edge">
<title>cypher&#45;&gt;core</title>
<path fill="none" stroke="#475569" stroke-width="1.2" d="M439.65,-397.26C415.08,-421.65 367.48,-463.69 317,-480 262.87,-497.49 242.15,-500.29 189,-480 167.94,-471.96 148.32,-457.99 131.54,-442.96"/>
<polygon fill="#475569" stroke="#475569" stroke-width="1.2" points="133.74,-440.23 124.03,-436 128.98,-445.37 133.74,-440.23"/>
</g>
<!-- facade -->
<g id="node6" class="node">
<title>facade</title>
<polygon fill="#fef3c7" stroke="#d97706" stroke-width="1.4" points="493.5,-226 422.5,-226 422.5,-190 493.5,-190 493.5,-226"/>
<text text-anchor="middle" x="458" y="-204.3" font-family="Helvetica,Arial,sans-serif" font-size="14.00">issundb</text>
</g>
<!-- facade&#45;&gt;core -->
<g id="edge7" class="edge">
<title>facade&#45;&gt;core</title>
<path fill="none" stroke="#475569" stroke-width="1.2" d="M406.5,-209.88C350.27,-213.86 258.2,-226.19 189,-264 156.39,-281.82 127.22,-312.08 106.68,-337.09"/>
<polygon fill="#475569" stroke="#475569" stroke-width="1.2" points="103.86,-335.01 100.33,-345 109.32,-339.4 103.86,-335.01"/>
</g>
<!-- facade&#45;&gt;vector -->
<g id="edge8" class="edge">
<title>facade&#45;&gt;vector</title>
<path fill="none" stroke="#475569" stroke-width="1.2" d="M406.5,-233.64C385.6,-244.25 360.9,-256.79 337.89,-268.47"/>
<polygon fill="#475569" stroke="#475569" stroke-width="1.2" points="336.3,-265.35 328.97,-273 339.47,-271.6 336.3,-265.35"/>
</g>
<!-- cli -->
<g id="node7" class="node">
<title>cli</title>
<polygon fill="#e9d5ff" stroke="#7c3aed" stroke-width="1.4" points="696,-420 608,-420 608,-384 696,-384 696,-420"/>
<text text-anchor="middle" x="652" y="-398.3" font-family="Helvetica,Arial,sans-serif" font-size="14.00">issundb&#45;cli</text>
</g>
<!-- cli&#45;&gt;facade -->
<g id="edge9" class="edge">
<title>cli&#45;&gt;facade</title>
<path fill="none" stroke="#475569" stroke-width="1.2" d="M583,-366C548.69,-329.75 567.65,-302.59 536,-264 530.58,-257.4 524.22,-251.18 517.5,-245.45"/>
<polygon fill="#475569" stroke="#475569" stroke-width="1.2" points="519.47,-242.55 509.5,-238.97 515.07,-247.99 519.47,-242.55"/>
</g>
<!-- rest -->
<g id="node8" class="node">
<title>rest</title>
<polygon fill="#e9d5ff" stroke="#7c3aed" stroke-width="1.4" points="701,-348 603,-348 603,-312 701,-312 701,-348"/>
<text text-anchor="middle" x="652" y="-326.3" font-family="Helvetica,Arial,sans-serif" font-size="14.00">issundb&#45;rest</text>
</g>
<!-- rest&#45;&gt;facade -->
<g id="edge10" class="edge">
<title>rest&#45;&gt;facade</title>
<path fill="none" stroke="#475569" stroke-width="1.2" d="M583,-294C561.21,-280.74 538.05,-265.12 517.73,-250.87"/>
<polygon fill="#475569" stroke="#475569" stroke-width="1.2" points="519.69,-247.96 509.5,-245.06 515.65,-253.68 519.69,-247.96"/>
</g>
<!-- mcp -->
<g id="node9" class="node">
<title>mcp</title>
<polygon fill="#e9d5ff" stroke="#7c3aed" stroke-width="1.4" points="703,-276 601,-276 601,-240 703,-240 703,-276"/>
<text text-anchor="middle" x="652" y="-254.3" font-family="Helvetica,Arial,sans-serif" font-size="14.00">issundb&#45;mcp</text>
</g>
<!-- mcp&#45;&gt;facade -->
<g id="edge11" class="edge">
<title>mcp&#45;&gt;facade</title>
<path fill="none" stroke="#475569" stroke-width="1.2" d="M583,-240.29C562.22,-234.88 539.52,-228.97 519.29,-223.7"/>
<polygon fill="#475569" stroke="#475569" stroke-width="1.2" points="520.06,-220.28 509.5,-221.15 518.29,-227.06 520.06,-220.28"/>
</g>
<!-- gui -->
<g id="node10" class="node">
<title>gui</title>
<polygon fill="#e9d5ff" stroke="#7c3aed" stroke-width="1.4" points="699,-204 605,-204 605,-168 699,-168 699,-204"/>
<text text-anchor="middle" x="652" y="-182.3" font-family="Helvetica,Arial,sans-serif" font-size="14.00">issundb&#45;gui</text>
</g>
<!-- gui&#45;&gt;facade -->
<g id="edge12" class="edge">
<title>gui&#45;&gt;facade</title>
<path fill="none" stroke="#475569" stroke-width="1.2" d="M583,-193.79C562.39,-196.15 539.88,-198.73 519.77,-201.04"/>
<polygon fill="#475569" stroke="#475569" stroke-width="1.2" points="519.04,-197.6 509.5,-202.21 519.83,-204.55 519.04,-197.6"/>
</g>
<!-- node_bind -->
<g id="node11" class="node">
<title>node_bind</title>
<polygon fill="#e9d5ff" stroke="#7c3aed" stroke-width="1.4" points="705,-132 599,-132 599,-96 705,-96 705,-132"/>
<text text-anchor="middle" x="652" y="-110.3" font-family="Helvetica,Arial,sans-serif" font-size="14.00">issundb&#45;node</text>
</g>
<!-- node_bind&#45;&gt;facade -->
<g id="edge13" class="edge">
<title>node_bind&#45;&gt;facade</title>
<path fill="none" stroke="#475569" stroke-width="1.2" d="M583,-147.29C561.97,-157.59 538.96,-168.85 518.54,-178.85"/>
<polygon fill="#475569" stroke="#475569" stroke-width="1.2" points="516.94,-175.74 509.5,-183.28 520.02,-182.02 516.94,-175.74"/>
</g>
<!-- py_bind -->
<g id="node12" class="node">
<title>py_bind</title>
<polygon fill="#e9d5ff" stroke="#7c3aed" stroke-width="1.4" points="697,-60 607,-60 607,-24 697,-24 697,-60"/>
<text text-anchor="middle" x="652" y="-38.3" font-family="Helvetica,Arial,sans-serif" font-size="14.00">issundb&#45;py</text>
</g>
<!-- py_bind&#45;&gt;facade -->
<g id="edge14" class="edge">
<title>py_bind&#45;&gt;facade</title>
<path fill="none" stroke="#475569" stroke-width="1.2" d="M583,-78C549.09,-103.67 516.13,-138.87 492.73,-166.17"/>
<polygon fill="#475569" stroke="#475569" stroke-width="1.2" points="489.88,-164.11 486.08,-174 495.22,-168.64 489.88,-164.11"/>
</g>
</g>
</svg>
