<?xml version="1.0" encoding="UTF-8" standalone="no"?>
<!DOCTYPE svg PUBLIC "-//W3C//DTD SVG 1.1//EN"
 "http://www.w3.org/Graphics/SVG/1.1/DTD/svg11.dtd">
<!-- Generated by graphviz version 2.43.0 (0)
 -->
<!-- Title: IssunDBArchitecture Pages: 1 -->
<svg width="737pt" height="480pt"
 viewBox="0.00 0.00 737.00 480.34" xmlns="http://www.w3.org/2000/svg" xmlns:xlink="http://www.w3.org/1999/xlink">
<g id="graph0" class="graph" transform="scale(1 1) rotate(0) translate(4 476.34)">
<title>IssunDBArchitecture</title>
<polygon fill="white" stroke="transparent" points="-4,4 -4,-476.34 733,-476.34 733,4 -4,4"/>
<g id="clust1" class="cluster">
<title>cluster_core</title>
<path fill="white" stroke="#2563eb" stroke-width="1.4" d="M20,-323C20,-323 130,-323 130,-323 136,-323 142,-329 142,-335 142,-335 142,-402 142,-402 142,-408 136,-414 130,-414 130,-414 20,-414 20,-414 14,-414 8,-408 8,-402 8,-402 8,-335 8,-335 8,-329 14,-323 20,-323"/>
<text text-anchor="middle" x="75" y="-398.8" font-family="Helvetica,Arial,sans-serif" font-size="14.00">Storage Engine</text>
</g>
<g id="clust2" class="cluster">
<title>cluster_ext</title>
<path fill="white" stroke="#65a30d" stroke-width="1.4" d="M201,-251C201,-251 524,-251 524,-251 530,-251 536,-257 536,-263 536,-263 536,-402 536,-402 536,-408 530,-414 524,-414 524,-414 201,-414 201,-414 195,-414 189,-408 189,-402 189,-402 189,-263 189,-263 189,-257 195,-251 201,-251"/>
<text text-anchor="middle" x="362.5" y="-398.8" font-family="Helvetica,Arial,sans-serif" font-size="14.00">Extension Crates</text>
</g>
<g id="clust3" class="cluster">
<title>cluster_facade</title>
<path fill="white" stroke="#d97706" stroke-width="1.4" d="M418.5,-152C418.5,-152 497.5,-152 497.5,-152 503.5,-152 509.5,-158 509.5,-164 509.5,-164 509.5,-231 509.5,-231 509.5,-237 503.5,-243 497.5,-243 497.5,-243 418.5,-243 418.5,-243 412.5,-243 406.5,-237 406.5,-231 406.5,-231 406.5,-164 406.5,-164 406.5,-158 412.5,-152 418.5,-152"/>
<text text-anchor="middle" x="458" y="-227.8" font-family="Helvetica,Arial,sans-serif" font-size="14.00">Public Facade</text>
</g>
<g id="clust4" class="cluster">
<title>cluster_consumers</title>
<path fill="white" stroke="#7c3aed" stroke-width="1.4" d="M595,-8C595,-8 709,-8 709,-8 715,-8 721,-14 721,-20 721,-20 721,-375 721,-375 721,-381 715,-387 709,-387 709,-387 595,-387 595,-387 589,-387 583,-381 583,-375 583,-375 583,-20 583,-20 583,-14 589,-8 595,-8"/>
<text text-anchor="middle" x="652" y="-371.8" font-family="Helvetica,Arial,sans-serif" font-size="14.00">Consumers</text>
</g>
<!-- core -->
<g id="node1" class="node">
<title>core</title>
<polygon fill="#dbeafe" stroke="#2563eb" stroke-width="1.4" points="126,-375 24,-375 24,-339 126,-339 126,-375"/>
<text text-anchor="middle" x="75" y="-353.3" font-family="Helvetica,Arial,sans-serif" font-size="14.00">issundb&#45;core</text>
</g>
<!-- vector -->
<g id="node2" class="node">
<title>vector</title>
<polygon fill="#ecfccb" stroke="#65a30d" stroke-width="1.4" points="317,-303 205,-303 205,-267 317,-267 317,-303"/>
<text text-anchor="middle" x="261" y="-281.3" font-family="Helvetica,Arial,sans-serif" font-size="14.00">issundb&#45;vector</text>
</g>
<!-- vector&#45;&gt;core -->
<g id="edge1" class="edge">
<title>vector&#45;&gt;core</title>
<path fill="none" stroke="#475569" stroke-width="1.2" d="M213.57,-303.17C194.77,-310.53 172.57,-319.21 151.55,-327.44"/>
<polygon fill="#475569" stroke="#475569" stroke-width="1.2" points="150.03,-324.27 142,-331.18 152.58,-330.79 150.03,-324.27"/>
</g>
<!-- text -->
<g id="node3" class="node">
<title>text</title>
<polygon fill="#ecfccb" stroke="#65a30d" stroke-width="1.4" points="309.5,-375 212.5,-375 212.5,-339 309.5,-339 309.5,-375"/>
<text text-anchor="middle" x="261" y="-353.3" font-family="Helvetica,Arial,sans-serif" font-size="14.00">issundb&#45;text</text>
</g>
<!-- text&#45;&gt;core -->
<g id="edge2" class="edge">
<title>text&#45;&gt;core</title>
<path fill="none" stroke="#475569" stroke-width="1.2" d="M212.14,-357C193.83,-357 172.48,-357 152.18,-357"/>
<polygon fill="#475569" stroke="#475569" stroke-width="1.2" points="152,-353.5 142,-357 152,-360.5 152,-353.5"/>
</g>
<!-- retrieval -->
<g id="node4" class="node">
<title>retrieval</title>
<polygon fill="#d9f99d" stroke="#4d7c0f" stroke-width="1.4" points="520,-303 396,-303 396,-267 520,-267 520,-303"/>
<text text-anchor="middle" x="458" y="-281.3" font-family="Helvetica,Arial,sans-serif" font-size="14.00">issundb&#45;retrieval</text>
</g>
<!-- retrieval&#45;&gt;core -->
<g id="edge3" class="edge">
<title>retrieval&#45;&gt;core</title>
<path fill="none" stroke="#475569" stroke-width="1.2" d="M423.6,-303.04C414.41,-308.45 404.61,-314.64 396,-321 357.79,-349.22 361.3,-375.84 317,-393 264.07,-413.5 200.41,-402.62 151.82,-387.62"/>
<polygon fill="#475569" stroke="#475569" stroke-width="1.2" points="152.59,-384.2 142,-384.47 150.45,-390.86 152.59,-384.2"/>
</g>
<!-- retrieval&#45;&gt;vector -->
<g id="edge4" class="edge">
<title>retrieval&#45;&gt;vector</title>
<path fill="none" stroke="#475569" stroke-width="1.2" d="M395.84,-285C374.14,-285 349.64,-285 327.6,-285"/>
<polygon fill="#475569" stroke="#475569" stroke-width="1.2" points="327.32,-281.5 317.32,-285 327.32,-288.5 327.32,-281.5"/>
</g>
<!-- retrieval&#45;&gt;text -->
<g id="edge5" class="edge">
<title>retrieval&#45;&gt;text</title>
<path fill="none" stroke="#475569" stroke-width="1.2" d="M408.04,-303.08C381.1,-313.02 347.51,-325.43 319.34,-335.83"/>
<polygon fill="#475569" stroke="#475569" stroke-width="1.2" points="317.8,-332.67 309.63,-339.41 320.22,-339.23 317.8,-332.67"/>
</g>
<!-- cypher -->
<g id="node5" class="node">
<title>cypher</title>
<polygon fill="#d9f99d" stroke="#4d7c0f" stroke-width="1.4" points="516,-375 400,-375 400,-339 516,-339 516,-375"/>
<text text-anchor="middle" x="458" y="-353.3" font-family="Helvetica,Arial,sans-serif" font-size="14.00">issundb&#45;cypher</text>
</g>
<!-- cypher&#45;&gt;core -->
<g id="edge6" class="edge">
<title>cypher&#45;&gt;core</title>
<path fill="none" stroke="#475569" stroke-width="1.2" d="M439.65,-375.26C415.08,-399.65 367.48,-441.69 317,-458 262.87,-475.49 242.15,-478.29 189,-458 167.94,-449.96 148.32,-435.99 131.54,-420.96"/>
<polygon fill="#475569" stroke="#475569" stroke-width="1.2" points="133.74,-418.23 124.03,-414 128.98,-423.37 133.74,-418.23"/>
</g>
<!-- facade -->
<g id="node6" class="node">
<title>facade</title>
<polygon fill="#fef3c7" stroke="#d97706" stroke-width="1.4" points="493.5,-204 422.5,-204 422.5,-168 493.5,-168 493.5,-204"/>
<text text-anchor="middle" x="458" y="-182.3" font-family="Helvetica,Arial,sans-serif" font-size="14.00">issundb</text>
</g>
<!-- facade&#45;&gt;core -->
<g id="edge7" class="edge">
<title>facade&#45;&gt;core</title>
<path fill="none" stroke="#475569" stroke-width="1.2" d="M406.5,-187.88C350.27,-191.86 258.2,-204.19 189,-242 156.39,-259.82 127.22,-290.08 106.68,-315.09"/>
<polygon fill="#475569" stroke="#475569" stroke-width="1.2" points="103.86,-313.01 100.33,-323 109.32,-317.4 103.86,-313.01"/>
</g>
<!-- facade&#45;&gt;vector -->
<g id="edge8" class="edge">
<title>facade&#45;&gt;vector</title>
<path fill="none" stroke="#475569" stroke-width="1.2" d="M406.5,-211.64C385.6,-222.25 360.9,-234.79 337.89,-246.47"/>
<polygon fill="#475569" stroke="#475569" stroke-width="1.2" points="336.3,-243.35 328.97,-251 339.47,-249.6 336.3,-243.35"/>
</g>
<!-- cli -->
<g id="node7" class="node">
<title>cli</title>
<polygon fill="#e9d5ff" stroke="#7c3aed" stroke-width="1.4" points="696,-348 608,-348 608,-312 696,-312 696,-348"/>
<text text-anchor="middle" x="652" y="-326.3" font-family="Helvetica,Arial,sans-serif" font-size="14.00">issundb&#45;cli</text>
</g>
<!-- cli&#45;&gt;facade -->
<g id="edge9" class="edge">
<title>cli&#45;&gt;facade</title>
<path fill="none" stroke="#475569" stroke-width="1.2" d="M583,-294C558.42,-274.87 559.17,-262.83 536,-242 530.21,-236.8 523.95,-231.62 517.59,-226.62"/>
<polygon fill="#475569" stroke="#475569" stroke-width="1.2" points="519.56,-223.72 509.5,-220.41 515.3,-229.28 519.56,-223.72"/>
</g>
<!-- rest -->
<g id="node8" class="node">
<title>rest</title>
<polygon fill="#e9d5ff" stroke="#7c3aed" stroke-width="1.4" points="701,-276 603,-276 603,-240 701,-240 701,-276"/>
<text text-anchor="middle" x="652" y="-254.3" font-family="Helvetica,Arial,sans-serif" font-size="14.00">issundb&#45;rest</text>
</g>
<!-- rest&#45;&gt;facade -->
<g id="edge10" class="edge">
<title>rest&#45;&gt;facade</title>
<path fill="none" stroke="#475569" stroke-width="1.2" d="M583,-232.5C562.18,-224.69 539.44,-216.16 519.17,-208.57"/>
<polygon fill="#475569" stroke="#475569" stroke-width="1.2" points="520.09,-205.17 509.5,-204.94 517.63,-211.73 520.09,-205.17"/>
</g>
<!-- mcp -->
<g id="node9" class="node">
<title>mcp</title>
<polygon fill="#e9d5ff" stroke="#7c3aed" stroke-width="1.4" points="703,-204 601,-204 601,-168 703,-168 703,-204"/>
<text text-anchor="middle" x="652" y="-182.3" font-family="Helvetica,Arial,sans-serif" font-size="14.00">issundb&#45;mcp</text>
</g>
<!-- mcp&#45;&gt;facade -->
<g id="edge11" class="edge">
<title>mcp&#45;&gt;facade</title>
<path fill="none" stroke="#475569" stroke-width="1.2" d="M583,-186C562.34,-186 539.78,-186 519.63,-186"/>
<polygon fill="#475569" stroke="#475569" stroke-width="1.2" points="519.5,-182.5 509.5,-186 519.5,-189.5 519.5,-182.5"/>
</g>
<!-- node_bind -->
<g id="node10" class="node">
<title>node_bind</title>
<polygon fill="#e9d5ff" stroke="#7c3aed" stroke-width="1.4" points="705,-132 599,-132 599,-96 705,-96 705,-132"/>
<text text-anchor="middle" x="652" y="-110.3" font-family="Helvetica,Arial,sans-serif" font-size="14.00">issundb&#45;node</text>
</g>
<!-- node_bind&#45;&gt;facade -->
<g id="edge12" class="edge">
<title>node_bind&#45;&gt;facade</title>
<path fill="none" stroke="#475569" stroke-width="1.2" d="M583,-139.5C562.18,-147.31 539.44,-155.84 519.17,-163.43"/>
<polygon fill="#475569" stroke="#475569" stroke-width="1.2" points="517.63,-160.27 509.5,-167.06 520.09,-166.83 517.63,-160.27"/>
</g>
<!-- py_bind -->
<g id="node11" class="node">
<title>py_bind</title>
<polygon fill="#e9d5ff" stroke="#7c3aed" stroke-width="1.4" points="697,-60 607,-60 607,-24 697,-24 697,-60"/>
<text text-anchor="middle" x="652" y="-38.3" font-family="Helvetica,Arial,sans-serif" font-size="14.00">issundb&#45;py</text>
</g>
<!-- py_bind&#45;&gt;facade -->
<g id="edge13" class="edge">
<title>py_bind&#45;&gt;facade</title>
<path fill="none" stroke="#475569" stroke-width="1.2" d="M583,-78C554.05,-97.88 524.29,-123.59 501.18,-144.94"/>
<polygon fill="#475569" stroke="#475569" stroke-width="1.2" points="498.54,-142.62 493.61,-152 503.31,-147.74 498.54,-142.62"/>
</g>
</g>
</svg>
