<?xml version="1.0" encoding="UTF-8" standalone="no"?>
<!DOCTYPE svg PUBLIC "-//W3C//DTD SVG 1.1//EN"
 "http://www.w3.org/Graphics/SVG/1.1/DTD/svg11.dtd">
<!-- Generated by graphviz version 2.43.0 (0)
 -->
<!-- Title: IssunDBArchitecture Pages: 1 -->
<svg width="1219pt" height="591pt"
 viewBox="0.00 0.00 1219.00 591.19" xmlns="http://www.w3.org/2000/svg" xmlns:xlink="http://www.w3.org/1999/xlink">
<g id="graph0" class="graph" transform="scale(1 1) rotate(0) translate(4 587.19)">
<title>IssunDBArchitecture</title>
<polygon fill="white" stroke="transparent" points="-4,4 -4,-587.19 1215,-587.19 1215,4 -4,4"/>
<g id="clust1" class="cluster">
<title>cluster_graphblas</title>
<path fill="white" stroke="#0891b2" stroke-width="1.4" d="M20,-467C20,-467 403,-467 403,-467 409,-467 415,-473 415,-479 415,-479 415,-546 415,-546 415,-552 409,-558 403,-558 403,-558 20,-558 20,-558 14,-558 8,-552 8,-546 8,-546 8,-479 8,-479 8,-473 14,-467 20,-467"/>
<text text-anchor="middle" x="211.5" y="-542.8" font-family="Helvetica,Arial,sans-serif" font-size="14.00">GraphBLAS Wrapper</text>
</g>
<g id="clust2" class="cluster">
<title>cluster_core</title>
<path fill="white" stroke="#2563eb" stroke-width="1.4" d="M474,-467C474,-467 584,-467 584,-467 590,-467 596,-473 596,-479 596,-479 596,-546 596,-546 596,-552 590,-558 584,-558 584,-558 474,-558 474,-558 468,-558 462,-552 462,-546 462,-546 462,-479 462,-479 462,-473 468,-467 474,-467"/>
<text text-anchor="middle" x="529" y="-542.8" font-family="Helvetica,Arial,sans-serif" font-size="14.00">Storage Engine</text>
</g>
<g id="clust3" class="cluster">
<title>cluster_ext</title>
<path fill="white" stroke="#65a30d" stroke-width="1.4" d="M655,-395C655,-395 1182,-395 1182,-395 1188,-395 1194,-401 1194,-407 1194,-407 1194,-550 1194,-550 1194,-556 1188,-562 1182,-562 1182,-562 655,-562 655,-562 649,-562 643,-556 643,-550 643,-550 643,-407 643,-407 643,-401 649,-395 655,-395"/>
<text text-anchor="middle" x="918.5" y="-546.8" font-family="Helvetica,Arial,sans-serif" font-size="14.00">Extension Crates</text>
</g>
<g id="clust4" class="cluster">
<title>cluster_facade</title>
<path fill="white" stroke="#d97706" stroke-width="1.4" d="M872.5,-224C872.5,-224 951.5,-224 951.5,-224 957.5,-224 963.5,-230 963.5,-236 963.5,-236 963.5,-303 963.5,-303 963.5,-309 957.5,-315 951.5,-315 951.5,-315 872.5,-315 872.5,-315 866.5,-315 860.5,-309 860.5,-303 860.5,-303 860.5,-236 860.5,-236 860.5,-230 866.5,-224 872.5,-224"/>
<text text-anchor="middle" x="912" y="-299.8" font-family="Helvetica,Arial,sans-serif" font-size="14.00">Public Facade</text>
</g>
<g id="clust5" class="cluster">
<title>cluster_consumers</title>
<path fill="white" stroke="#7c3aed" stroke-width="1.4" d="M1049,-8C1049,-8 1191,-8 1191,-8 1197,-8 1203,-14 1203,-20 1203,-20 1203,-375 1203,-375 1203,-381 1197,-387 1191,-387 1191,-387 1049,-387 1049,-387 1043,-387 1037,-381 1037,-375 1037,-375 1037,-20 1037,-20 1037,-14 1043,-8 1049,-8"/>
<text text-anchor="middle" x="1120" y="-371.8" font-family="Helvetica,Arial,sans-serif" font-size="14.00">Consumer Crates</text>
</g>
<!-- graphblas_sys -->
<g id="node1" class="node">
<title>graphblas_sys</title>
<polygon fill="#cffafe" stroke="#0891b2" stroke-width="1.4" points="184,-519 24,-519 24,-483 184,-483 184,-519"/>
<text text-anchor="middle" x="104" y="-497.3" font-family="Helvetica,Arial,sans-serif" font-size="14.00">issundb&#45;graphblas&#45;sys</text>
</g>
<!-- graphblas -->
<g id="node2" class="node">
<title>graphblas</title>
<polygon fill="#cffafe" stroke="#0891b2" stroke-width="1.4" points="399,-519 263,-519 263,-483 399,-483 399,-519"/>
<text text-anchor="middle" x="331" y="-497.3" font-family="Helvetica,Arial,sans-serif" font-size="14.00">issundb&#45;graphblas</text>
</g>
<!-- graphblas&#45;&gt;graphblas_sys -->
<g id="edge1" class="edge">
<title>graphblas&#45;&gt;graphblas_sys</title>
<path fill="none" stroke="#475569" stroke-width="1.2" d="M262.8,-501C241.25,-501 217.05,-501 194.19,-501"/>
<polygon fill="#475569" stroke="#475569" stroke-width="1.2" points="194.14,-497.5 184.14,-501 194.14,-504.5 194.14,-497.5"/>
</g>
<!-- core -->
<g id="node3" class="node">
<title>core</title>
<polygon fill="#dbeafe" stroke="#2563eb" stroke-width="1.4" points="580,-519 478,-519 478,-483 580,-483 580,-519"/>
<text text-anchor="middle" x="529" y="-497.3" font-family="Helvetica,Arial,sans-serif" font-size="14.00">issundb&#45;core</text>
</g>
<!-- core&#45;&gt;graphblas -->
<g id="edge2" class="edge">
<title>core&#45;&gt;graphblas</title>
<path fill="none" stroke="#475569" stroke-width="1.2" d="M477.78,-501C461.65,-501 443.24,-501 425.06,-501"/>
<polygon fill="#475569" stroke="#475569" stroke-width="1.2" points="425,-497.5 415,-501 425,-504.5 425,-497.5"/>
</g>
<!-- vector -->
<g id="node4" class="node">
<title>vector</title>
<polygon fill="#ecfccb" stroke="#65a30d" stroke-width="1.4" points="771,-447 659,-447 659,-411 771,-411 771,-447"/>
<text text-anchor="middle" x="715" y="-425.3" font-family="Helvetica,Arial,sans-serif" font-size="14.00">issundb&#45;vector</text>
</g>
<!-- vector&#45;&gt;core -->
<g id="edge3" class="edge">
<title>vector&#45;&gt;core</title>
<path fill="none" stroke="#475569" stroke-width="1.2" d="M667.57,-447.17C648.77,-454.53 626.57,-463.21 605.55,-471.44"/>
<polygon fill="#475569" stroke="#475569" stroke-width="1.2" points="604.03,-468.27 596,-475.18 606.58,-474.79 604.03,-468.27"/>
</g>
<!-- text -->
<g id="node5" class="node">
<title>text</title>
<polygon fill="#ecfccb" stroke="#65a30d" stroke-width="1.4" points="763.5,-519 666.5,-519 666.5,-483 763.5,-483 763.5,-519"/>
<text text-anchor="middle" x="715" y="-497.3" font-family="Helvetica,Arial,sans-serif" font-size="14.00">issundb&#45;text</text>
</g>
<!-- text&#45;&gt;core -->
<g id="edge4" class="edge">
<title>text&#45;&gt;core</title>
<path fill="none" stroke="#475569" stroke-width="1.2" d="M666.14,-501C647.83,-501 626.48,-501 606.18,-501"/>
<polygon fill="#475569" stroke="#475569" stroke-width="1.2" points="606,-497.5 596,-501 606,-504.5 606,-497.5"/>
</g>
<!-- retrieval -->
<g id="node6" class="node">
<title>retrieval</title>
<polygon fill="#d9f99d" stroke="#4d7c0f" stroke-width="1.4" points="974,-485 850,-485 850,-449 974,-449 974,-485"/>
<text text-anchor="middle" x="912" y="-463.3" font-family="Helvetica,Arial,sans-serif" font-size="14.00">issundb&#45;retrieval</text>
</g>
<!-- retrieval&#45;&gt;core -->
<g id="edge5" class="edge">
<title>retrieval&#45;&gt;core</title>
<path fill="none" stroke="#475569" stroke-width="1.2" d="M884.3,-485.1C857.15,-502.32 813.18,-527.04 771,-537 715.63,-550.07 699.21,-545.74 643,-537 630.77,-535.1 618.06,-532.11 605.76,-528.64"/>
<polygon fill="#475569" stroke="#475569" stroke-width="1.2" points="606.58,-525.23 596,-525.77 604.6,-531.95 606.58,-525.23"/>
</g>
<!-- retrieval&#45;&gt;vector -->
<g id="edge6" class="edge">
<title>retrieval&#45;&gt;vector</title>
<path fill="none" stroke="#475569" stroke-width="1.2" d="M849.84,-455.08C828.04,-450.83 803.42,-446.04 781.3,-441.72"/>
<polygon fill="#475569" stroke="#475569" stroke-width="1.2" points="781.81,-438.26 771.32,-439.78 780.47,-445.13 781.81,-438.26"/>
</g>
<!-- retrieval&#45;&gt;text -->
<g id="edge7" class="edge">
<title>retrieval&#45;&gt;text</title>
<path fill="none" stroke="#475569" stroke-width="1.2" d="M849.84,-477.66C825.5,-481.91 797.64,-486.77 773.66,-490.95"/>
<polygon fill="#475569" stroke="#475569" stroke-width="1.2" points="772.9,-487.53 763.65,-492.69 774.1,-494.42 772.9,-487.53"/>
</g>
<!-- cypher -->
<g id="node7" class="node">
<title>cypher</title>
<polygon fill="#d9f99d" stroke="#4d7c0f" stroke-width="1.4" points="1178,-504 1062,-504 1062,-468 1178,-468 1178,-504"/>
<text text-anchor="middle" x="1120" y="-482.3" font-family="Helvetica,Arial,sans-serif" font-size="14.00">issundb&#45;cypher</text>
</g>
<!-- cypher&#45;&gt;core -->
<g id="edge8" class="edge">
<title>cypher&#45;&gt;core</title>
<path fill="none" stroke="#475569" stroke-width="1.2" d="M1080.49,-504.1C998.77,-540.04 802.43,-613.27 643,-569 630.04,-565.4 617.09,-559.88 604.81,-553.5"/>
<polygon fill="#475569" stroke="#475569" stroke-width="1.2" points="606.46,-550.41 596,-548.72 603.12,-556.56 606.46,-550.41"/>
</g>
<!-- cypher&#45;&gt;vector -->
<g id="edge10" class="edge">
<title>cypher&#45;&gt;vector</title>
<path fill="none" stroke="#475569" stroke-width="1.2" d="M1082.5,-468C1053.79,-454.88 1012.37,-438.19 974,-431 909.3,-418.88 833.87,-420.02 781.34,-423.18"/>
<polygon fill="#475569" stroke="#475569" stroke-width="1.2" points="780.9,-419.7 771.15,-423.84 781.35,-426.69 780.9,-419.7"/>
</g>
<!-- cypher&#45;&gt;text -->
<g id="edge9" class="edge">
<title>cypher&#45;&gt;text</title>
<path fill="none" stroke="#475569" stroke-width="1.2" d="M1061.97,-494.24C1035.31,-497.7 1003.1,-501.3 974,-503 918.98,-506.21 905.11,-503.41 850,-503 825.07,-502.81 797.54,-502.43 773.95,-502.05"/>
<polygon fill="#475569" stroke="#475569" stroke-width="1.2" points="773.81,-498.55 763.75,-501.89 773.69,-505.55 773.81,-498.55"/>
</g>
<!-- cypher&#45;&gt;retrieval -->
<g id="edge11" class="edge">
<title>cypher&#45;&gt;retrieval</title>
<path fill="none" stroke="#475569" stroke-width="1.2" d="M1061.89,-480.73C1037.93,-478.52 1009.79,-475.93 984.47,-473.59"/>
<polygon fill="#475569" stroke="#475569" stroke-width="1.2" points="984.47,-470.08 974.19,-472.64 983.82,-477.05 984.47,-470.08"/>
</g>
<!-- facade -->
<g id="node8" class="node">
<title>facade</title>
<polygon fill="#fef3c7" stroke="#d97706" stroke-width="1.4" points="947.5,-276 876.5,-276 876.5,-240 947.5,-240 947.5,-276"/>
<text text-anchor="middle" x="912" y="-254.3" font-family="Helvetica,Arial,sans-serif" font-size="14.00">issundb</text>
</g>
<!-- facade&#45;&gt;core -->
<g id="edge12" class="edge">
<title>facade&#45;&gt;core</title>
<path fill="none" stroke="#475569" stroke-width="1.2" d="M860.5,-276C804.4,-297.33 712.56,-336.35 643,-386 613.79,-406.85 585.49,-435.66 564.52,-459.23"/>
<polygon fill="#475569" stroke="#475569" stroke-width="1.2" points="561.67,-457.18 557.7,-467 566.93,-461.8 561.67,-457.18"/>
</g>
<!-- facade&#45;&gt;vector -->
<g id="edge13" class="edge">
<title>facade&#45;&gt;vector</title>
<path fill="none" stroke="#475569" stroke-width="1.2" d="M860.5,-302.28C830.2,-328.86 791.93,-362.42 762.39,-388.32"/>
<polygon fill="#475569" stroke="#475569" stroke-width="1.2" points="759.98,-385.78 754.77,-395 764.6,-391.04 759.98,-385.78"/>
</g>
<!-- cli -->
<g id="node9" class="node">
<title>cli</title>
<polygon fill="#e9d5ff" stroke="#7c3aed" stroke-width="1.4" points="1164,-204 1076,-204 1076,-168 1164,-168 1164,-204"/>
<text text-anchor="middle" x="1120" y="-182.3" font-family="Helvetica,Arial,sans-serif" font-size="14.00">issundb&#45;cli</text>
</g>
<!-- cli&#45;&gt;facade -->
<g id="edge14" class="edge">
<title>cli&#45;&gt;facade</title>
<path fill="none" stroke="#475569" stroke-width="1.2" d="M1037,-214.66C1015.64,-222.13 993.01,-230.04 973.02,-237.02"/>
<polygon fill="#475569" stroke="#475569" stroke-width="1.2" points="971.78,-233.75 963.5,-240.35 974.09,-240.36 971.78,-233.75"/>
</g>
<!-- rest -->
<g id="node10" class="node">
<title>rest</title>
<polygon fill="#e9d5ff" stroke="#7c3aed" stroke-width="1.4" points="1169,-132 1071,-132 1071,-96 1169,-96 1169,-132"/>
<text text-anchor="middle" x="1120" y="-110.3" font-family="Helvetica,Arial,sans-serif" font-size="14.00">issundb&#45;rest</text>
</g>
<!-- rest&#45;&gt;facade -->
<g id="edge15" class="edge">
<title>rest&#45;&gt;facade</title>
<path fill="none" stroke="#475569" stroke-width="1.2" d="M1037,-150C1006.87,-169.1 976.61,-195.29 953.53,-217.09"/>
<polygon fill="#475569" stroke="#475569" stroke-width="1.2" points="951.11,-214.56 946.3,-224 955.94,-219.62 951.11,-214.56"/>
</g>
<!-- mcp -->
<g id="node11" class="node">
<title>mcp</title>
<polygon fill="#e9d5ff" stroke="#7c3aed" stroke-width="1.4" points="1171,-60 1069,-60 1069,-24 1171,-24 1171,-60"/>
<text text-anchor="middle" x="1120" y="-38.3" font-family="Helvetica,Arial,sans-serif" font-size="14.00">issundb&#45;mcp</text>
</g>
<!-- mcp&#45;&gt;facade -->
<g id="edge16" class="edge">
<title>mcp&#45;&gt;facade</title>
<path fill="none" stroke="#475569" stroke-width="1.2" d="M1037,-78C991.1,-115.93 954.89,-174.98 933.73,-215.01"/>
<polygon fill="#475569" stroke="#475569" stroke-width="1.2" points="930.56,-213.52 929.06,-224 936.77,-216.74 930.56,-213.52"/>
</g>
<!-- py_bind -->
<g id="node12" class="node">
<title>py_bind</title>
<polygon fill="#e9d5ff" stroke="#7c3aed" stroke-width="1.4" points="1165,-348 1075,-348 1075,-312 1165,-312 1165,-348"/>
<text text-anchor="middle" x="1120" y="-326.3" font-family="Helvetica,Arial,sans-serif" font-size="14.00">issundb&#45;py</text>
</g>
<!-- py_bind&#45;&gt;facade -->
<g id="edge17" class="edge">
<title>py_bind&#45;&gt;facade</title>
<path fill="none" stroke="#475569" stroke-width="1.2" d="M1037,-301.34C1015.75,-293.91 993.25,-286.05 973.34,-279.09"/>
<polygon fill="#475569" stroke="#475569" stroke-width="1.2" points="974.09,-275.64 963.5,-275.65 971.78,-282.25 974.09,-275.64"/>
</g>
<!-- examples -->
<g id="node13" class="node">
<title>examples</title>
<polygon fill="#e9d5ff" stroke="#7c3aed" stroke-width="1.4" points="1187,-276 1053,-276 1053,-240 1187,-240 1187,-276"/>
<text text-anchor="middle" x="1120" y="-254.3" font-family="Helvetica,Arial,sans-serif" font-size="14.00">issundb&#45;examples</text>
</g>
<!-- examples&#45;&gt;facade -->
<g id="edge18" class="edge">
<title>examples&#45;&gt;facade</title>
<path fill="none" stroke="#475569" stroke-width="1.2" d="M1037,-258C1015.83,-258 993.42,-258 973.56,-258"/>
<polygon fill="#475569" stroke="#475569" stroke-width="1.2" points="973.5,-254.5 963.5,-258 973.5,-261.5 973.5,-254.5"/>
</g>
</g>
</svg>
