<?xml version="1.0" encoding="UTF-8" standalone="no"?>
<!DOCTYPE svg PUBLIC "-//W3C//DTD SVG 1.1//EN"
 "http://www.w3.org/Graphics/SVG/1.1/DTD/svg11.dtd">
<!-- Generated by graphviz version 2.43.0 (0)
 -->
<!-- Title: IssunDBArchitecture Pages: 1 -->
<svg width="1219pt" height="480pt"
 viewBox="0.00 0.00 1219.00 480.34" xmlns="http://www.w3.org/2000/svg" xmlns:xlink="http://www.w3.org/1999/xlink">
<g id="graph0" class="graph" transform="scale(1 1) rotate(0) translate(4 476.34)">
<title>IssunDBArchitecture</title>
<polygon fill="white" stroke="transparent" points="-4,4 -4,-476.34 1215,-476.34 1215,4 -4,4"/>
<g id="clust1" class="cluster">
<title>cluster_graphblas</title>
<path fill="white" stroke="#0891b2" stroke-width="1.4" d="M20,-323C20,-323 403,-323 403,-323 409,-323 415,-329 415,-335 415,-335 415,-402 415,-402 415,-408 409,-414 403,-414 403,-414 20,-414 20,-414 14,-414 8,-408 8,-402 8,-402 8,-335 8,-335 8,-329 14,-323 20,-323"/>
<text text-anchor="middle" x="211.5" y="-398.8" font-family="Helvetica,Arial,sans-serif" font-size="14.00">GraphBLAS Wapper</text>
</g>
<g id="clust2" class="cluster">
<title>cluster_core</title>
<path fill="white" stroke="#2563eb" stroke-width="1.4" d="M474,-323C474,-323 584,-323 584,-323 590,-323 596,-329 596,-335 596,-335 596,-402 596,-402 596,-408 590,-414 584,-414 584,-414 474,-414 474,-414 468,-414 462,-408 462,-402 462,-402 462,-335 462,-335 462,-329 468,-323 474,-323"/>
<text text-anchor="middle" x="529" y="-398.8" font-family="Helvetica,Arial,sans-serif" font-size="14.00">Storage Engine</text>
</g>
<g id="clust3" class="cluster">
<title>cluster_ext</title>
<path fill="white" stroke="#65a30d" stroke-width="1.4" d="M655,-251C655,-251 978,-251 978,-251 984,-251 990,-257 990,-263 990,-263 990,-402 990,-402 990,-408 984,-414 978,-414 978,-414 655,-414 655,-414 649,-414 643,-408 643,-402 643,-402 643,-263 643,-263 643,-257 649,-251 655,-251"/>
<text text-anchor="middle" x="816.5" y="-398.8" font-family="Helvetica,Arial,sans-serif" font-size="14.00">Extension Crates</text>
</g>
<g id="clust4" class="cluster">
<title>cluster_facade</title>
<path fill="white" stroke="#d97706" stroke-width="1.4" d="M872.5,-152C872.5,-152 951.5,-152 951.5,-152 957.5,-152 963.5,-158 963.5,-164 963.5,-164 963.5,-231 963.5,-231 963.5,-237 957.5,-243 951.5,-243 951.5,-243 872.5,-243 872.5,-243 866.5,-243 860.5,-237 860.5,-231 860.5,-231 860.5,-164 860.5,-164 860.5,-158 866.5,-152 872.5,-152"/>
<text text-anchor="middle" x="912" y="-227.8" font-family="Helvetica,Arial,sans-serif" font-size="14.00">Public Facade</text>
</g>
<g id="clust5" class="cluster">
<title>cluster_consumers</title>
<path fill="white" stroke="#7c3aed" stroke-width="1.4" d="M1049,-8C1049,-8 1191,-8 1191,-8 1197,-8 1203,-14 1203,-20 1203,-20 1203,-375 1203,-375 1203,-381 1197,-387 1191,-387 1191,-387 1049,-387 1049,-387 1043,-387 1037,-381 1037,-375 1037,-375 1037,-20 1037,-20 1037,-14 1043,-8 1049,-8"/>
<text text-anchor="middle" x="1120" y="-371.8" font-family="Helvetica,Arial,sans-serif" font-size="14.00">Consumer Crates</text>
</g>
<!-- graphblas_sys -->
<g id="node1" class="node">
<title>graphblas_sys</title>
<polygon fill="#cffafe" stroke="#0891b2" stroke-width="1.4" points="184,-375 24,-375 24,-339 184,-339 184,-375"/>
<text text-anchor="middle" x="104" y="-353.3" font-family="Helvetica,Arial,sans-serif" font-size="14.00">issundb&#45;graphblas&#45;sys</text>
</g>
<!-- graphblas -->
<g id="node2" class="node">
<title>graphblas</title>
<polygon fill="#cffafe" stroke="#0891b2" stroke-width="1.4" points="399,-375 263,-375 263,-339 399,-339 399,-375"/>
<text text-anchor="middle" x="331" y="-353.3" font-family="Helvetica,Arial,sans-serif" font-size="14.00">issundb&#45;graphblas</text>
</g>
<!-- graphblas&#45;&gt;graphblas_sys -->
<g id="edge1" class="edge">
<title>graphblas&#45;&gt;graphblas_sys</title>
<path fill="none" stroke="#475569" stroke-width="1.2" d="M262.8,-357C241.25,-357 217.05,-357 194.19,-357"/>
<polygon fill="#475569" stroke="#475569" stroke-width="1.2" points="194.14,-353.5 184.14,-357 194.14,-360.5 194.14,-353.5"/>
</g>
<!-- core -->
<g id="node3" class="node">
<title>core</title>
<polygon fill="#dbeafe" stroke="#2563eb" stroke-width="1.4" points="580,-375 478,-375 478,-339 580,-339 580,-375"/>
<text text-anchor="middle" x="529" y="-353.3" font-family="Helvetica,Arial,sans-serif" font-size="14.00">issundb&#45;core</text>
</g>
<!-- core&#45;&gt;graphblas -->
<g id="edge2" class="edge">
<title>core&#45;&gt;graphblas</title>
<path fill="none" stroke="#475569" stroke-width="1.2" d="M477.78,-357C461.65,-357 443.24,-357 425.06,-357"/>
<polygon fill="#475569" stroke="#475569" stroke-width="1.2" points="425,-353.5 415,-357 425,-360.5 425,-353.5"/>
</g>
<!-- vector -->
<g id="node4" class="node">
<title>vector</title>
<polygon fill="#ecfccb" stroke="#65a30d" stroke-width="1.4" points="771,-303 659,-303 659,-267 771,-267 771,-303"/>
<text text-anchor="middle" x="715" y="-281.3" font-family="Helvetica,Arial,sans-serif" font-size="14.00">issundb&#45;vector</text>
</g>
<!-- vector&#45;&gt;core -->
<g id="edge3" class="edge">
<title>vector&#45;&gt;core</title>
<path fill="none" stroke="#475569" stroke-width="1.2" d="M667.57,-303.17C648.77,-310.53 626.57,-319.21 605.55,-327.44"/>
<polygon fill="#475569" stroke="#475569" stroke-width="1.2" points="604.03,-324.27 596,-331.18 606.58,-330.79 604.03,-324.27"/>
</g>
<!-- text -->
<g id="node5" class="node">
<title>text</title>
<polygon fill="#ecfccb" stroke="#65a30d" stroke-width="1.4" points="763.5,-375 666.5,-375 666.5,-339 763.5,-339 763.5,-375"/>
<text text-anchor="middle" x="715" y="-353.3" font-family="Helvetica,Arial,sans-serif" font-size="14.00">issundb&#45;text</text>
</g>
<!-- text&#45;&gt;core -->
<g id="edge4" class="edge">
<title>text&#45;&gt;core</title>
<path fill="none" stroke="#475569" stroke-width="1.2" d="M666.14,-357C647.83,-357 626.48,-357 606.18,-357"/>
<polygon fill="#475569" stroke="#475569" stroke-width="1.2" points="606,-353.5 596,-357 606,-360.5 606,-353.5"/>
</g>
<!-- retrieval -->
<g id="node6" class="node">
<title>retrieval</title>
<polygon fill="#d9f99d" stroke="#4d7c0f" stroke-width="1.4" points="974,-375 850,-375 850,-339 974,-339 974,-375"/>
<text text-anchor="middle" x="912" y="-353.3" font-family="Helvetica,Arial,sans-serif" font-size="14.00">issundb&#45;retrieval</text>
</g>
<!-- retrieval&#45;&gt;core -->
<g id="edge5" class="edge">
<title>retrieval&#45;&gt;core</title>
<path fill="none" stroke="#475569" stroke-width="1.2" d="M893.65,-375.26C869.08,-399.65 821.48,-441.69 771,-458 716.87,-475.49 696.15,-478.29 643,-458 621.94,-449.96 602.32,-435.99 585.54,-420.96"/>
<polygon fill="#475569" stroke="#475569" stroke-width="1.2" points="587.74,-418.23 578.03,-414 582.98,-423.37 587.74,-418.23"/>
</g>
<!-- retrieval&#45;&gt;vector -->
<g id="edge6" class="edge">
<title>retrieval&#45;&gt;vector</title>
<path fill="none" stroke="#475569" stroke-width="1.2" d="M862.04,-338.92C835.5,-329.12 802.52,-316.95 774.61,-306.64"/>
<polygon fill="#475569" stroke="#475569" stroke-width="1.2" points="775.57,-303.26 764.98,-303.08 773.14,-309.83 775.57,-303.26"/>
</g>
<!-- retrieval&#45;&gt;text -->
<g id="edge7" class="edge">
<title>retrieval&#45;&gt;text</title>
<path fill="none" stroke="#475569" stroke-width="1.2" d="M849.84,-357C825.5,-357 797.64,-357 773.66,-357"/>
<polygon fill="#475569" stroke="#475569" stroke-width="1.2" points="773.65,-353.5 763.65,-357 773.65,-360.5 773.65,-353.5"/>
</g>
<!-- cypher -->
<g id="node7" class="node">
<title>cypher</title>
<polygon fill="#d9f99d" stroke="#4d7c0f" stroke-width="1.4" points="970,-303 854,-303 854,-267 970,-267 970,-303"/>
<text text-anchor="middle" x="912" y="-281.3" font-family="Helvetica,Arial,sans-serif" font-size="14.00">issundb&#45;cypher</text>
</g>
<!-- cypher&#45;&gt;core -->
<g id="edge8" class="edge">
<title>cypher&#45;&gt;core</title>
<path fill="none" stroke="#475569" stroke-width="1.2" d="M877.6,-303.04C868.41,-308.45 858.61,-314.64 850,-321 811.79,-349.22 815.3,-375.84 771,-393 718.07,-413.5 654.41,-402.62 605.82,-387.62"/>
<polygon fill="#475569" stroke="#475569" stroke-width="1.2" points="606.59,-384.2 596,-384.47 604.45,-390.86 606.59,-384.2"/>
</g>
<!-- cypher&#45;&gt;vector -->
<g id="edge10" class="edge">
<title>cypher&#45;&gt;vector</title>
<path fill="none" stroke="#475569" stroke-width="1.2" d="M853.81,-285C831.1,-285 804.85,-285 781.39,-285"/>
<polygon fill="#475569" stroke="#475569" stroke-width="1.2" points="781.17,-281.5 771.17,-285 781.17,-288.5 781.17,-281.5"/>
</g>
<!-- cypher&#45;&gt;text -->
<g id="edge9" class="edge">
<title>cypher&#45;&gt;text</title>
<path fill="none" stroke="#475569" stroke-width="1.2" d="M862.04,-303.08C835.1,-313.02 801.51,-325.43 773.34,-335.83"/>
<polygon fill="#475569" stroke="#475569" stroke-width="1.2" points="771.8,-332.67 763.63,-339.41 774.22,-339.23 771.8,-332.67"/>
</g>
<!-- facade -->
<g id="node8" class="node">
<title>facade</title>
<polygon fill="#fef3c7" stroke="#d97706" stroke-width="1.4" points="947.5,-204 876.5,-204 876.5,-168 947.5,-168 947.5,-204"/>
<text text-anchor="middle" x="912" y="-182.3" font-family="Helvetica,Arial,sans-serif" font-size="14.00">issundb</text>
</g>
<!-- facade&#45;&gt;core -->
<g id="edge11" class="edge">
<title>facade&#45;&gt;core</title>
<path fill="none" stroke="#475569" stroke-width="1.2" d="M860.5,-187.88C804.27,-191.86 712.2,-204.19 643,-242 610.39,-259.82 581.22,-290.08 560.68,-315.09"/>
<polygon fill="#475569" stroke="#475569" stroke-width="1.2" points="557.86,-313.01 554.33,-323 563.32,-317.4 557.86,-313.01"/>
</g>
<!-- facade&#45;&gt;vector -->
<g id="edge12" class="edge">
<title>facade&#45;&gt;vector</title>
<path fill="none" stroke="#475569" stroke-width="1.2" d="M860.5,-211.64C839.6,-222.25 814.9,-234.79 791.89,-246.47"/>
<polygon fill="#475569" stroke="#475569" stroke-width="1.2" points="790.3,-243.35 782.97,-251 793.47,-249.6 790.3,-243.35"/>
</g>
<!-- cli -->
<g id="node9" class="node">
<title>cli</title>
<polygon fill="#e9d5ff" stroke="#7c3aed" stroke-width="1.4" points="1164,-348 1076,-348 1076,-312 1164,-312 1164,-348"/>
<text text-anchor="middle" x="1120" y="-326.3" font-family="Helvetica,Arial,sans-serif" font-size="14.00">issundb&#45;cli</text>
</g>
<!-- cli&#45;&gt;facade -->
<g id="edge13" class="edge">
<title>cli&#45;&gt;facade</title>
<path fill="none" stroke="#475569" stroke-width="1.2" d="M1037,-294C1011.73,-275.78 1013.17,-262.83 990,-242 984.21,-236.8 977.95,-231.62 971.59,-226.62"/>
<polygon fill="#475569" stroke="#475569" stroke-width="1.2" points="973.56,-223.72 963.5,-220.41 969.3,-229.28 973.56,-223.72"/>
</g>
<!-- rest -->
<g id="node10" class="node">
<title>rest</title>
<polygon fill="#e9d5ff" stroke="#7c3aed" stroke-width="1.4" points="1169,-276 1071,-276 1071,-240 1169,-240 1169,-276"/>
<text text-anchor="middle" x="1120" y="-254.3" font-family="Helvetica,Arial,sans-serif" font-size="14.00">issundb&#45;rest</text>
</g>
<!-- rest&#45;&gt;facade -->
<g id="edge14" class="edge">
<title>rest&#45;&gt;facade</title>
<path fill="none" stroke="#475569" stroke-width="1.2" d="M1037,-229.34C1015.61,-221.86 992.96,-213.95 972.95,-206.95"/>
<polygon fill="#475569" stroke="#475569" stroke-width="1.2" points="974.09,-203.64 963.5,-203.65 971.78,-210.25 974.09,-203.64"/>
</g>
<!-- mcp -->
<g id="node11" class="node">
<title>mcp</title>
<polygon fill="#e9d5ff" stroke="#7c3aed" stroke-width="1.4" points="1171,-204 1069,-204 1069,-168 1171,-168 1171,-204"/>
<text text-anchor="middle" x="1120" y="-182.3" font-family="Helvetica,Arial,sans-serif" font-size="14.00">issundb&#45;mcp</text>
</g>
<!-- mcp&#45;&gt;facade -->
<g id="edge15" class="edge">
<title>mcp&#45;&gt;facade</title>
<path fill="none" stroke="#475569" stroke-width="1.2" d="M1037,-186C1015.82,-186 993.4,-186 973.53,-186"/>
<polygon fill="#475569" stroke="#475569" stroke-width="1.2" points="973.5,-182.5 963.5,-186 973.5,-189.5 973.5,-182.5"/>
</g>
<!-- py_bind -->
<g id="node12" class="node">
<title>py_bind</title>
<polygon fill="#e9d5ff" stroke="#7c3aed" stroke-width="1.4" points="1165,-132 1075,-132 1075,-96 1165,-96 1165,-132"/>
<text text-anchor="middle" x="1120" y="-110.3" font-family="Helvetica,Arial,sans-serif" font-size="14.00">issundb&#45;py</text>
</g>
<!-- py_bind&#45;&gt;facade -->
<g id="edge16" class="edge">
<title>py_bind&#45;&gt;facade</title>
<path fill="none" stroke="#475569" stroke-width="1.2" d="M1037,-142.66C1015.75,-150.09 993.25,-157.95 973.34,-164.91"/>
<polygon fill="#475569" stroke="#475569" stroke-width="1.2" points="971.78,-161.75 963.5,-168.35 974.09,-168.36 971.78,-161.75"/>
</g>
<!-- examples -->
<g id="node13" class="node">
<title>examples</title>
<polygon fill="#e9d5ff" stroke="#7c3aed" stroke-width="1.4" points="1187,-60 1053,-60 1053,-24 1187,-24 1187,-60"/>
<text text-anchor="middle" x="1120" y="-38.3" font-family="Helvetica,Arial,sans-serif" font-size="14.00">issundb&#45;examples</text>
</g>
<!-- examples&#45;&gt;facade -->
<g id="edge17" class="edge">
<title>examples&#45;&gt;facade</title>
<path fill="none" stroke="#475569" stroke-width="1.2" d="M1037,-78C1006.87,-97.1 976.61,-123.29 953.53,-145.09"/>
<polygon fill="#475569" stroke="#475569" stroke-width="1.2" points="951.11,-142.56 946.3,-152 955.94,-147.62 951.11,-142.56"/>
</g>
</g>
</svg>
