<?xml version="1.0" encoding="UTF-8" standalone="no"?>
<!DOCTYPE svg PUBLIC "-//W3C//DTD SVG 1.1//EN"
 "http://www.w3.org/Graphics/SVG/1.1/DTD/svg11.dtd">
<!-- Generated by graphviz version 2.43.0 (0)
 -->
<!-- Title: IssunDBArchitecture Pages: 1 -->
<svg width="1219pt" height="502pt"
 viewBox="0.00 0.00 1219.00 502.34" xmlns="http://www.w3.org/2000/svg" xmlns:xlink="http://www.w3.org/1999/xlink">
<g id="graph0" class="graph" transform="scale(1 1) rotate(0) translate(4 498.34)">
<title>IssunDBArchitecture</title>
<polygon fill="white" stroke="transparent" points="-4,4 -4,-498.34 1215,-498.34 1215,4 -4,4"/>
<g id="clust1" class="cluster">
<title>cluster_graphblas</title>
<path fill="white" stroke="#0891b2" stroke-width="1.4" d="M20,-345C20,-345 403,-345 403,-345 409,-345 415,-351 415,-357 415,-357 415,-424 415,-424 415,-430 409,-436 403,-436 403,-436 20,-436 20,-436 14,-436 8,-430 8,-424 8,-424 8,-357 8,-357 8,-351 14,-345 20,-345"/>
<text text-anchor="middle" x="211.5" y="-420.8" font-family="Helvetica,Arial,sans-serif" font-size="14.00">GraphBLAS Foundation</text>
</g>
<g id="clust2" class="cluster">
<title>cluster_core</title>
<path fill="white" stroke="#2563eb" stroke-width="1.4" d="M474,-345C474,-345 584,-345 584,-345 590,-345 596,-351 596,-357 596,-357 596,-424 596,-424 596,-430 590,-436 584,-436 584,-436 474,-436 474,-436 468,-436 462,-430 462,-424 462,-424 462,-357 462,-357 462,-351 468,-345 474,-345"/>
<text text-anchor="middle" x="529" y="-420.8" font-family="Helvetica,Arial,sans-serif" font-size="14.00">Storage Engine</text>
</g>
<g id="clust3" class="cluster">
<title>cluster_ext</title>
<path fill="white" stroke="#65a30d" stroke-width="1.4" d="M655,-273C655,-273 978,-273 978,-273 984,-273 990,-279 990,-285 990,-285 990,-424 990,-424 990,-430 984,-436 978,-436 978,-436 655,-436 655,-436 649,-436 643,-430 643,-424 643,-424 643,-285 643,-285 643,-279 649,-273 655,-273"/>
<text text-anchor="middle" x="816.5" y="-420.8" font-family="Helvetica,Arial,sans-serif" font-size="14.00">Extension Crates</text>
</g>
<g id="clust4" class="cluster">
<title>cluster_facade</title>
<path fill="white" stroke="#d97706" stroke-width="1.4" d="M872.5,-174C872.5,-174 951.5,-174 951.5,-174 957.5,-174 963.5,-180 963.5,-186 963.5,-186 963.5,-253 963.5,-253 963.5,-259 957.5,-265 951.5,-265 951.5,-265 872.5,-265 872.5,-265 866.5,-265 860.5,-259 860.5,-253 860.5,-253 860.5,-186 860.5,-186 860.5,-180 866.5,-174 872.5,-174"/>
<text text-anchor="middle" x="912" y="-249.8" font-family="Helvetica,Arial,sans-serif" font-size="14.00">Public Facade</text>
</g>
<g id="clust5" class="cluster">
<title>cluster_consumers</title>
<path fill="white" stroke="#7c3aed" stroke-width="1.4" d="M1049,-8C1049,-8 1191,-8 1191,-8 1197,-8 1203,-14 1203,-20 1203,-20 1203,-447 1203,-447 1203,-453 1197,-459 1191,-459 1191,-459 1049,-459 1049,-459 1043,-459 1037,-453 1037,-447 1037,-447 1037,-20 1037,-20 1037,-14 1043,-8 1049,-8"/>
<text text-anchor="middle" x="1120" y="-443.8" font-family="Helvetica,Arial,sans-serif" font-size="14.00">Consumer Crates</text>
</g>
<!-- graphblas_sys -->
<g id="node1" class="node">
<title>graphblas_sys</title>
<polygon fill="#cffafe" stroke="#0891b2" stroke-width="1.4" points="184,-397 24,-397 24,-361 184,-361 184,-397"/>
<text text-anchor="middle" x="104" y="-375.3" font-family="Helvetica,Arial,sans-serif" font-size="14.00">issundb&#45;graphblas&#45;sys</text>
</g>
<!-- graphblas -->
<g id="node2" class="node">
<title>graphblas</title>
<polygon fill="#cffafe" stroke="#0891b2" stroke-width="1.4" points="399,-397 263,-397 263,-361 399,-361 399,-397"/>
<text text-anchor="middle" x="331" y="-375.3" font-family="Helvetica,Arial,sans-serif" font-size="14.00">issundb&#45;graphblas</text>
</g>
<!-- graphblas&#45;&gt;graphblas_sys -->
<g id="edge1" class="edge">
<title>graphblas&#45;&gt;graphblas_sys</title>
<path fill="none" stroke="#475569" stroke-width="1.2" d="M262.8,-379C241.25,-379 217.05,-379 194.19,-379"/>
<polygon fill="#475569" stroke="#475569" stroke-width="1.2" points="194.14,-375.5 184.14,-379 194.14,-382.5 194.14,-375.5"/>
</g>
<!-- core -->
<g id="node3" class="node">
<title>core</title>
<polygon fill="#dbeafe" stroke="#2563eb" stroke-width="1.4" points="580,-397 478,-397 478,-361 580,-361 580,-397"/>
<text text-anchor="middle" x="529" y="-375.3" font-family="Helvetica,Arial,sans-serif" font-size="14.00">issundb&#45;core</text>
</g>
<!-- core&#45;&gt;graphblas -->
<g id="edge2" class="edge">
<title>core&#45;&gt;graphblas</title>
<path fill="none" stroke="#475569" stroke-width="1.2" d="M477.78,-379C461.65,-379 443.24,-379 425.06,-379"/>
<polygon fill="#475569" stroke="#475569" stroke-width="1.2" points="425,-375.5 415,-379 425,-382.5 425,-375.5"/>
</g>
<!-- vector -->
<g id="node4" class="node">
<title>vector</title>
<polygon fill="#ecfccb" stroke="#65a30d" stroke-width="1.4" points="771,-325 659,-325 659,-289 771,-289 771,-325"/>
<text text-anchor="middle" x="715" y="-303.3" font-family="Helvetica,Arial,sans-serif" font-size="14.00">issundb&#45;vector</text>
</g>
<!-- vector&#45;&gt;core -->
<g id="edge3" class="edge">
<title>vector&#45;&gt;core</title>
<path fill="none" stroke="#475569" stroke-width="1.2" d="M667.57,-325.17C648.77,-332.53 626.57,-341.21 605.55,-349.44"/>
<polygon fill="#475569" stroke="#475569" stroke-width="1.2" points="604.03,-346.27 596,-353.18 606.58,-352.79 604.03,-346.27"/>
</g>
<!-- text -->
<g id="node5" class="node">
<title>text</title>
<polygon fill="#ecfccb" stroke="#65a30d" stroke-width="1.4" points="763.5,-397 666.5,-397 666.5,-361 763.5,-361 763.5,-397"/>
<text text-anchor="middle" x="715" y="-375.3" font-family="Helvetica,Arial,sans-serif" font-size="14.00">issundb&#45;text</text>
</g>
<!-- text&#45;&gt;core -->
<g id="edge4" class="edge">
<title>text&#45;&gt;core</title>
<path fill="none" stroke="#475569" stroke-width="1.2" d="M666.14,-379C647.83,-379 626.48,-379 606.18,-379"/>
<polygon fill="#475569" stroke="#475569" stroke-width="1.2" points="606,-375.5 596,-379 606,-382.5 606,-375.5"/>
</g>
<!-- retrieval -->
<g id="node6" class="node">
<title>retrieval</title>
<polygon fill="#d9f99d" stroke="#4d7c0f" stroke-width="1.4" points="974,-325 850,-325 850,-289 974,-289 974,-325"/>
<text text-anchor="middle" x="912" y="-303.3" font-family="Helvetica,Arial,sans-serif" font-size="14.00">issundb&#45;retrieval</text>
</g>
<!-- retrieval&#45;&gt;core -->
<g id="edge5" class="edge">
<title>retrieval&#45;&gt;core</title>
<path fill="none" stroke="#475569" stroke-width="1.2" d="M877.6,-325.04C868.41,-330.45 858.61,-336.64 850,-343 811.79,-371.22 815.3,-397.84 771,-415 718.07,-435.5 654.41,-424.62 605.82,-409.62"/>
<polygon fill="#475569" stroke="#475569" stroke-width="1.2" points="606.59,-406.2 596,-406.47 604.45,-412.86 606.59,-406.2"/>
</g>
<!-- retrieval&#45;&gt;vector -->
<g id="edge6" class="edge">
<title>retrieval&#45;&gt;vector</title>
<path fill="none" stroke="#475569" stroke-width="1.2" d="M849.84,-307C828.14,-307 803.64,-307 781.6,-307"/>
<polygon fill="#475569" stroke="#475569" stroke-width="1.2" points="781.32,-303.5 771.32,-307 781.32,-310.5 781.32,-303.5"/>
</g>
<!-- retrieval&#45;&gt;text -->
<g id="edge7" class="edge">
<title>retrieval&#45;&gt;text</title>
<path fill="none" stroke="#475569" stroke-width="1.2" d="M862.04,-325.08C835.1,-335.02 801.51,-347.43 773.34,-357.83"/>
<polygon fill="#475569" stroke="#475569" stroke-width="1.2" points="771.8,-354.67 763.63,-361.41 774.22,-361.23 771.8,-354.67"/>
</g>
<!-- cypher -->
<g id="node7" class="node">
<title>cypher</title>
<polygon fill="#d9f99d" stroke="#4d7c0f" stroke-width="1.4" points="970,-397 854,-397 854,-361 970,-361 970,-397"/>
<text text-anchor="middle" x="912" y="-375.3" font-family="Helvetica,Arial,sans-serif" font-size="14.00">issundb&#45;cypher</text>
</g>
<!-- cypher&#45;&gt;core -->
<g id="edge8" class="edge">
<title>cypher&#45;&gt;core</title>
<path fill="none" stroke="#475569" stroke-width="1.2" d="M893.65,-397.26C869.08,-421.65 821.48,-463.69 771,-480 716.87,-497.49 696.15,-500.29 643,-480 621.94,-471.96 602.32,-457.99 585.54,-442.96"/>
<polygon fill="#475569" stroke="#475569" stroke-width="1.2" points="587.74,-440.23 578.03,-436 582.98,-445.37 587.74,-440.23"/>
</g>
<!-- cypher&#45;&gt;text -->
<g id="edge9" class="edge">
<title>cypher&#45;&gt;text</title>
<path fill="none" stroke="#475569" stroke-width="1.2" d="M853.81,-379C828.62,-379 799.08,-379 773.82,-379"/>
<polygon fill="#475569" stroke="#475569" stroke-width="1.2" points="773.65,-375.5 763.65,-379 773.65,-382.5 773.65,-375.5"/>
</g>
<!-- facade -->
<g id="node8" class="node">
<title>facade</title>
<polygon fill="#fef3c7" stroke="#d97706" stroke-width="1.4" points="947.5,-226 876.5,-226 876.5,-190 947.5,-190 947.5,-226"/>
<text text-anchor="middle" x="912" y="-204.3" font-family="Helvetica,Arial,sans-serif" font-size="14.00">issundb</text>
</g>
<!-- facade&#45;&gt;core -->
<g id="edge10" class="edge">
<title>facade&#45;&gt;core</title>
<path fill="none" stroke="#475569" stroke-width="1.2" d="M860.5,-209.88C804.27,-213.86 712.2,-226.19 643,-264 610.39,-281.82 581.22,-312.08 560.68,-337.09"/>
<polygon fill="#475569" stroke="#475569" stroke-width="1.2" points="557.86,-335.01 554.33,-345 563.32,-339.4 557.86,-335.01"/>
</g>
<!-- facade&#45;&gt;vector -->
<g id="edge11" class="edge">
<title>facade&#45;&gt;vector</title>
<path fill="none" stroke="#475569" stroke-width="1.2" d="M860.5,-233.64C839.6,-244.25 814.9,-256.79 791.89,-268.47"/>
<polygon fill="#475569" stroke="#475569" stroke-width="1.2" points="790.3,-265.35 782.97,-273 793.47,-271.6 790.3,-265.35"/>
</g>
<!-- cli -->
<g id="node9" class="node">
<title>cli</title>
<polygon fill="#e9d5ff" stroke="#7c3aed" stroke-width="1.4" points="1164,-420 1076,-420 1076,-384 1164,-384 1164,-420"/>
<text text-anchor="middle" x="1120" y="-398.3" font-family="Helvetica,Arial,sans-serif" font-size="14.00">issundb&#45;cli</text>
</g>
<!-- cli&#45;&gt;facade -->
<g id="edge12" class="edge">
<title>cli&#45;&gt;facade</title>
<path fill="none" stroke="#475569" stroke-width="1.2" d="M1037,-366C1001.39,-331.03 1021.65,-302.59 990,-264 984.58,-257.4 978.22,-251.18 971.5,-245.45"/>
<polygon fill="#475569" stroke="#475569" stroke-width="1.2" points="973.47,-242.55 963.5,-238.97 969.07,-247.99 973.47,-242.55"/>
</g>
<!-- rest -->
<g id="node10" class="node">
<title>rest</title>
<polygon fill="#e9d5ff" stroke="#7c3aed" stroke-width="1.4" points="1169,-348 1071,-348 1071,-312 1169,-312 1169,-348"/>
<text text-anchor="middle" x="1120" y="-326.3" font-family="Helvetica,Arial,sans-serif" font-size="14.00">issundb&#45;rest</text>
</g>
<!-- rest&#45;&gt;facade -->
<g id="edge13" class="edge">
<title>rest&#45;&gt;facade</title>
<path fill="none" stroke="#475569" stroke-width="1.2" d="M1037,-294C1023.77,-286.6 997.15,-268.31 971.96,-250.49"/>
<polygon fill="#475569" stroke="#475569" stroke-width="1.2" points="973.68,-247.42 963.5,-244.48 969.63,-253.13 973.68,-247.42"/>
</g>
<!-- mcp -->
<g id="node11" class="node">
<title>mcp</title>
<polygon fill="#e9d5ff" stroke="#7c3aed" stroke-width="1.4" points="1171,-276 1069,-276 1069,-240 1171,-240 1171,-276"/>
<text text-anchor="middle" x="1120" y="-254.3" font-family="Helvetica,Arial,sans-serif" font-size="14.00">issundb&#45;mcp</text>
</g>
<!-- mcp&#45;&gt;facade -->
<g id="edge14" class="edge">
<title>mcp&#45;&gt;facade</title>
<path fill="none" stroke="#475569" stroke-width="1.2" d="M1037,-238.1C1015.82,-232.96 993.4,-227.51 973.53,-222.69"/>
<polygon fill="#475569" stroke="#475569" stroke-width="1.2" points="974.04,-219.21 963.5,-220.26 972.39,-226.02 974.04,-219.21"/>
</g>
<!-- node_bind -->
<g id="node12" class="node">
<title>node_bind</title>
<polygon fill="#e9d5ff" stroke="#7c3aed" stroke-width="1.4" points="1173,-204 1067,-204 1067,-168 1173,-168 1173,-204"/>
<text text-anchor="middle" x="1120" y="-182.3" font-family="Helvetica,Arial,sans-serif" font-size="14.00">issundb&#45;node</text>
</g>
<!-- node_bind&#45;&gt;facade -->
<g id="edge15" class="edge">
<title>node_bind&#45;&gt;facade</title>
<path fill="none" stroke="#475569" stroke-width="1.2" d="M1037,-194.76C1015.88,-197.01 993.52,-199.4 973.7,-201.52"/>
<polygon fill="#475569" stroke="#475569" stroke-width="1.2" points="973.07,-198.06 963.5,-202.61 973.81,-205.03 973.07,-198.06"/>
</g>
<!-- py_bind -->
<g id="node13" class="node">
<title>py_bind</title>
<polygon fill="#e9d5ff" stroke="#7c3aed" stroke-width="1.4" points="1165,-132 1075,-132 1075,-96 1165,-96 1165,-132"/>
<text text-anchor="middle" x="1120" y="-110.3" font-family="Helvetica,Arial,sans-serif" font-size="14.00">issundb&#45;py</text>
</g>
<!-- py_bind&#45;&gt;facade -->
<g id="edge16" class="edge">
<title>py_bind&#45;&gt;facade</title>
<path fill="none" stroke="#475569" stroke-width="1.2" d="M1037,-150C1015.96,-159.54 993.02,-170.19 972.66,-179.75"/>
<polygon fill="#475569" stroke="#475569" stroke-width="1.2" points="971.06,-176.63 963.5,-184.05 974.04,-182.96 971.06,-176.63"/>
</g>
<!-- examples -->
<g id="node14" class="node">
<title>examples</title>
<polygon fill="#e9d5ff" stroke="#7c3aed" stroke-width="1.4" points="1187,-60 1053,-60 1053,-24 1187,-24 1187,-60"/>
<text text-anchor="middle" x="1120" y="-38.3" font-family="Helvetica,Arial,sans-serif" font-size="14.00">issundb&#45;examples</text>
</g>
<!-- examples&#45;&gt;facade -->
<g id="edge17" class="edge">
<title>examples&#45;&gt;facade</title>
<path fill="none" stroke="#475569" stroke-width="1.2" d="M1037,-78C1001.89,-102.61 968.73,-138.28 945.55,-166.03"/>
<polygon fill="#475569" stroke="#475569" stroke-width="1.2" points="942.64,-164.06 938.98,-174 948.04,-168.51 942.64,-164.06"/>
</g>
</g>
</svg>
