<?xml version="1.0" encoding="UTF-8" standalone="no"?>
<!DOCTYPE svg PUBLIC "-//W3C//DTD SVG 1.1//EN"
 "http://www.w3.org/Graphics/SVG/1.1/DTD/svg11.dtd">
<!-- Generated by graphviz version 2.43.0 (0)
 -->
<!-- Title: IssunDBArchitecture Pages: 1 -->
<svg width="765pt" height="650pt"
 viewBox="0.00 0.00 765.00 650.00" xmlns="http://www.w3.org/2000/svg" xmlns:xlink="http://www.w3.org/1999/xlink">
<g id="graph0" class="graph" transform="scale(1 1) rotate(0) translate(4 646)">
<title>IssunDBArchitecture</title>
<polygon fill="white" stroke="transparent" points="-4,4 -4,-646 761,-646 761,4 -4,4"/>
<g id="clust1" class="cluster">
<title>cluster_core</title>
<path fill="white" stroke="#2563eb" stroke-width="1.4" d="M20,-424C20,-424 130,-424 130,-424 136,-424 142,-430 142,-436 142,-436 142,-503 142,-503 142,-509 136,-515 130,-515 130,-515 20,-515 20,-515 14,-515 8,-509 8,-503 8,-503 8,-436 8,-436 8,-430 14,-424 20,-424"/>
<text text-anchor="middle" x="75" y="-499.8" font-family="Helvetica,Arial,sans-serif" font-size="14.00">Storage Engine</text>
</g>
<g id="clust2" class="cluster">
<title>cluster_ext</title>
<path fill="white" stroke="#65a30d" stroke-width="1.4" d="M201,-467C201,-467 728,-467 728,-467 734,-467 740,-473 740,-479 740,-479 740,-622 740,-622 740,-628 734,-634 728,-634 728,-634 201,-634 201,-634 195,-634 189,-628 189,-622 189,-622 189,-479 189,-479 189,-473 195,-467 201,-467"/>
<text text-anchor="middle" x="464.5" y="-618.8" font-family="Helvetica,Arial,sans-serif" font-size="14.00">Extension Crates</text>
</g>
<g id="clust3" class="cluster">
<title>cluster_facade</title>
<path fill="white" stroke="#d97706" stroke-width="1.4" d="M418.5,-368C418.5,-368 497.5,-368 497.5,-368 503.5,-368 509.5,-374 509.5,-380 509.5,-380 509.5,-447 509.5,-447 509.5,-453 503.5,-459 497.5,-459 497.5,-459 418.5,-459 418.5,-459 412.5,-459 406.5,-453 406.5,-447 406.5,-447 406.5,-380 406.5,-380 406.5,-374 412.5,-368 418.5,-368"/>
<text text-anchor="middle" x="458" y="-443.8" font-family="Helvetica,Arial,sans-serif" font-size="14.00">Public Facade</text>
</g>
<g id="clust4" class="cluster">
<title>cluster_consumers</title>
<path fill="white" stroke="#7c3aed" stroke-width="1.4" d="M595,-8C595,-8 737,-8 737,-8 743,-8 749,-14 749,-20 749,-20 749,-447 749,-447 749,-453 743,-459 737,-459 737,-459 595,-459 595,-459 589,-459 583,-453 583,-447 583,-447 583,-20 583,-20 583,-14 589,-8 595,-8"/>
<text text-anchor="middle" x="666" y="-443.8" font-family="Helvetica,Arial,sans-serif" font-size="14.00">Consumer Crates</text>
</g>
<!-- core -->
<g id="node1" class="node">
<title>core</title>
<polygon fill="#dbeafe" stroke="#2563eb" stroke-width="1.4" points="126,-476 24,-476 24,-440 126,-440 126,-476"/>
<text text-anchor="middle" x="75" y="-454.3" font-family="Helvetica,Arial,sans-serif" font-size="14.00">issundb&#45;core</text>
</g>
<!-- vector -->
<g id="node2" class="node">
<title>vector</title>
<polygon fill="#ecfccb" stroke="#65a30d" stroke-width="1.4" points="317,-519 205,-519 205,-483 317,-483 317,-519"/>
<text text-anchor="middle" x="261" y="-497.3" font-family="Helvetica,Arial,sans-serif" font-size="14.00">issundb&#45;vector</text>
</g>
<!-- vector&#45;&gt;core -->
<g id="edge6" class="edge">
<title>vector&#45;&gt;core</title>
<path fill="none" stroke="#475569" stroke-width="1.2" d="M189,-484.41C176.8,-481.56 164.08,-478.58 151.76,-475.71"/>
<polygon fill="#475569" stroke="#475569" stroke-width="1.2" points="152.53,-472.29 142,-473.42 150.94,-479.11 152.53,-472.29"/>
</g>
<!-- text -->
<g id="node3" class="node">
<title>text</title>
<polygon fill="#ecfccb" stroke="#65a30d" stroke-width="1.4" points="309.5,-593 212.5,-593 212.5,-557 309.5,-557 309.5,-593"/>
<text text-anchor="middle" x="261" y="-571.3" font-family="Helvetica,Arial,sans-serif" font-size="14.00">issundb&#45;text</text>
</g>
<!-- retrieval -->
<g id="node4" class="node">
<title>retrieval</title>
<polygon fill="#d9f99d" stroke="#4d7c0f" stroke-width="1.4" points="520,-557 396,-557 396,-521 520,-521 520,-557"/>
<text text-anchor="middle" x="458" y="-535.3" font-family="Helvetica,Arial,sans-serif" font-size="14.00">issundb&#45;retrieval</text>
</g>
<!-- retrieval&#45;&gt;vector -->
<g id="edge1" class="edge">
<title>retrieval&#45;&gt;vector</title>
<path fill="none" stroke="#475569" stroke-width="1.2" d="M395.84,-527.08C374.04,-522.83 349.42,-518.04 327.3,-513.72"/>
<polygon fill="#475569" stroke="#475569" stroke-width="1.2" points="327.81,-510.26 317.32,-511.78 326.47,-517.13 327.81,-510.26"/>
</g>
<!-- retrieval&#45;&gt;text -->
<g id="edge2" class="edge">
<title>retrieval&#45;&gt;text</title>
<path fill="none" stroke="#475569" stroke-width="1.2" d="M395.84,-550.29C371.5,-554.78 343.64,-559.93 319.66,-564.35"/>
<polygon fill="#475569" stroke="#475569" stroke-width="1.2" points="318.85,-560.95 309.65,-566.2 320.12,-567.83 318.85,-560.95"/>
</g>
<!-- cypher -->
<g id="node5" class="node">
<title>cypher</title>
<polygon fill="#d9f99d" stroke="#4d7c0f" stroke-width="1.4" points="724,-557 608,-557 608,-521 724,-521 724,-557"/>
<text text-anchor="middle" x="666" y="-535.3" font-family="Helvetica,Arial,sans-serif" font-size="14.00">issundb&#45;cypher</text>
</g>
<!-- cypher&#45;&gt;vector -->
<g id="edge4" class="edge">
<title>cypher&#45;&gt;vector</title>
<path fill="none" stroke="#475569" stroke-width="1.2" d="M607.73,-521.48C581.3,-514.25 549.34,-506.7 520,-503 454.8,-494.77 379.59,-495.32 327.26,-497.28"/>
<polygon fill="#475569" stroke="#475569" stroke-width="1.2" points="326.96,-493.79 317.11,-497.69 327.24,-500.79 326.96,-493.79"/>
</g>
<!-- cypher&#45;&gt;text -->
<g id="edge3" class="edge">
<title>cypher&#45;&gt;text</title>
<path fill="none" stroke="#475569" stroke-width="1.2" d="M607.74,-556.63C581.31,-563.88 549.35,-571.41 520,-575 451.64,-583.36 372.33,-581.68 319.88,-579"/>
<polygon fill="#475569" stroke="#475569" stroke-width="1.2" points="319.94,-575.5 309.76,-578.45 319.56,-582.49 319.94,-575.5"/>
</g>
<!-- cypher&#45;&gt;retrieval -->
<g id="edge5" class="edge">
<title>cypher&#45;&gt;retrieval</title>
<path fill="none" stroke="#475569" stroke-width="1.2" d="M607.89,-539C583.93,-539 555.79,-539 530.47,-539"/>
<polygon fill="#475569" stroke="#475569" stroke-width="1.2" points="530.19,-535.5 520.19,-539 530.19,-542.5 530.19,-535.5"/>
</g>
<!-- facade -->
<g id="node6" class="node">
<title>facade</title>
<polygon fill="#fef3c7" stroke="#d97706" stroke-width="1.4" points="493.5,-420 422.5,-420 422.5,-384 493.5,-384 493.5,-420"/>
<text text-anchor="middle" x="458" y="-398.3" font-family="Helvetica,Arial,sans-serif" font-size="14.00">issundb</text>
</g>
<!-- facade&#45;&gt;core -->
<g id="edge7" class="edge">
<title>facade&#45;&gt;core</title>
<path fill="none" stroke="#475569" stroke-width="1.2" d="M406.5,-409.42C341.4,-418.99 227.61,-435.72 152.03,-446.83"/>
<polygon fill="#475569" stroke="#475569" stroke-width="1.2" points="151.38,-443.38 142,-448.3 152.4,-450.31 151.38,-443.38"/>
</g>
<!-- facade&#45;&gt;vector -->
<g id="edge8" class="edge">
<title>facade&#45;&gt;vector</title>
<path fill="none" stroke="#475569" stroke-width="1.2" d="M406.5,-427.64C385.6,-438.25 360.9,-450.79 337.89,-462.47"/>
<polygon fill="#475569" stroke="#475569" stroke-width="1.2" points="336.3,-459.35 328.97,-467 339.47,-465.6 336.3,-459.35"/>
</g>
<!-- cli -->
<g id="node7" class="node">
<title>cli</title>
<polygon fill="#e9d5ff" stroke="#7c3aed" stroke-width="1.4" points="710,-420 622,-420 622,-384 710,-384 710,-420"/>
<text text-anchor="middle" x="666" y="-398.3" font-family="Helvetica,Arial,sans-serif" font-size="14.00">issundb&#45;cli</text>
</g>
<!-- cli&#45;&gt;facade -->
<g id="edge9" class="edge">
<title>cli&#45;&gt;facade</title>
<path fill="none" stroke="#475569" stroke-width="1.2" d="M583,-402C561.94,-402 539.65,-402 519.87,-402"/>
<polygon fill="#475569" stroke="#475569" stroke-width="1.2" points="519.5,-398.5 509.5,-402 519.5,-405.5 519.5,-398.5"/>
</g>
<!-- rest -->
<g id="node8" class="node">
<title>rest</title>
<polygon fill="#e9d5ff" stroke="#7c3aed" stroke-width="1.4" points="715,-348 617,-348 617,-312 715,-312 715,-348"/>
<text text-anchor="middle" x="666" y="-326.3" font-family="Helvetica,Arial,sans-serif" font-size="14.00">issundb&#45;rest</text>
</g>
<!-- mcp -->
<g id="node9" class="node">
<title>mcp</title>
<polygon fill="#e9d5ff" stroke="#7c3aed" stroke-width="1.4" points="717,-276 615,-276 615,-240 717,-240 717,-276"/>
<text text-anchor="middle" x="666" y="-254.3" font-family="Helvetica,Arial,sans-serif" font-size="14.00">issundb&#45;mcp</text>
</g>
<!-- py_bind -->
<g id="node10" class="node">
<title>py_bind</title>
<polygon fill="#e9d5ff" stroke="#7c3aed" stroke-width="1.4" points="711,-204 621,-204 621,-168 711,-168 711,-204"/>
<text text-anchor="middle" x="666" y="-182.3" font-family="Helvetica,Arial,sans-serif" font-size="14.00">issundb&#45;py</text>
</g>
<!-- wasm -->
<g id="node11" class="node">
<title>wasm</title>
<polygon fill="#e9d5ff" stroke="#7c3aed" stroke-width="1.4" points="722,-132 610,-132 610,-96 722,-96 722,-132"/>
<text text-anchor="middle" x="666" y="-110.3" font-family="Helvetica,Arial,sans-serif" font-size="14.00">issundb&#45;wasm</text>
</g>
<!-- examples -->
<g id="node12" class="node">
<title>examples</title>
<polygon fill="#e9d5ff" stroke="#7c3aed" stroke-width="1.4" points="733,-60 599,-60 599,-24 733,-24 733,-60"/>
<text text-anchor="middle" x="666" y="-38.3" font-family="Helvetica,Arial,sans-serif" font-size="14.00">issundb&#45;examples</text>
</g>
</g>
</svg>
