<?xml version="1.0" encoding="UTF-8" standalone="no"?>
<!DOCTYPE svg PUBLIC "-//W3C//DTD SVG 1.1//EN"
 "http://www.w3.org/Graphics/SVG/1.1/DTD/svg11.dtd">
<!-- Generated by graphviz version 2.43.0 (0)
 -->
<!-- Title: IssunDBArchitecture Pages: 1 -->
<svg width="748pt" height="475pt"
 viewBox="0.00 0.00 748.00 475.00" xmlns="http://www.w3.org/2000/svg" xmlns:xlink="http://www.w3.org/1999/xlink">
<g id="graph0" class="graph" transform="scale(1 1) rotate(0) translate(4 471)">
<title>IssunDBArchitecture</title>
<polygon fill="white" stroke="transparent" points="-4,4 -4,-471 744,-471 744,4 -4,4"/>
<g id="clust1" class="cluster">
<title>cluster_core</title>
<path fill="white" stroke="#2563eb" stroke-width="1.4" d="M20,-309C20,-309 130,-309 130,-309 136,-309 142,-315 142,-321 142,-321 142,-388 142,-388 142,-394 136,-400 130,-400 130,-400 20,-400 20,-400 14,-400 8,-394 8,-388 8,-388 8,-321 8,-321 8,-315 14,-309 20,-309"/>
<text text-anchor="middle" x="75" y="-384.8" font-family="Helvetica,Arial,sans-serif" font-size="14.00">Storage Engine</text>
</g>
<g id="clust2" class="cluster">
<title>cluster_ext</title>
<path fill="white" stroke="#65a30d" stroke-width="1.4" d="M202.5,-273C202.5,-273 527,-273 527,-273 533,-273 539,-279 539,-285 539,-285 539,-424 539,-424 539,-430 533,-436 527,-436 527,-436 202.5,-436 202.5,-436 196.5,-436 190.5,-430 190.5,-424 190.5,-424 190.5,-285 190.5,-285 190.5,-279 196.5,-273 202.5,-273"/>
<text text-anchor="middle" x="364.75" y="-420.8" font-family="Helvetica,Arial,sans-serif" font-size="14.00">Extension Crates</text>
</g>
<g id="clust3" class="cluster">
<title>cluster_facade</title>
<path fill="white" stroke="#d97706" stroke-width="1.4" d="M421.5,-174C421.5,-174 500.5,-174 500.5,-174 506.5,-174 512.5,-180 512.5,-186 512.5,-186 512.5,-253 512.5,-253 512.5,-259 506.5,-265 500.5,-265 500.5,-265 421.5,-265 421.5,-265 415.5,-265 409.5,-259 409.5,-253 409.5,-253 409.5,-186 409.5,-186 409.5,-180 415.5,-174 421.5,-174"/>
<text text-anchor="middle" x="461" y="-249.8" font-family="Helvetica,Arial,sans-serif" font-size="14.00">Public Facade</text>
</g>
<g id="clust4" class="cluster">
<title>cluster_consumers</title>
<path fill="white" stroke="#7c3aed" stroke-width="1.4" d="M598,-8C598,-8 720,-8 720,-8 726,-8 732,-14 732,-20 732,-20 732,-447 732,-447 732,-453 726,-459 720,-459 720,-459 598,-459 598,-459 592,-459 586,-453 586,-447 586,-447 586,-20 586,-20 586,-14 592,-8 598,-8"/>
<text text-anchor="middle" x="659" y="-443.8" font-family="Helvetica,Arial,sans-serif" font-size="14.00">Consumers</text>
</g>
<g id="clust5" class="cluster">
<title>cluster_testing</title>
<path fill="white" stroke="#db2777" stroke-width="1.4" d="M201,-108C201,-108 324,-108 324,-108 330,-108 336,-114 336,-120 336,-120 336,-187 336,-187 336,-193 330,-199 324,-199 324,-199 201,-199 201,-199 195,-199 189,-193 189,-187 189,-187 189,-120 189,-120 189,-114 195,-108 201,-108"/>
<text text-anchor="middle" x="262.5" y="-183.8" font-family="Helvetica,Arial,sans-serif" font-size="14.00">Test Support</text>
</g>
<!-- core -->
<g id="node1" class="node">
<title>core</title>
<polygon fill="#dbeafe" stroke="#2563eb" stroke-width="1.4" points="126,-361 24,-361 24,-325 126,-325 126,-361"/>
<text text-anchor="middle" x="75" y="-339.3" font-family="Helvetica,Arial,sans-serif" font-size="14.00">issundb&#45;core</text>
</g>
<!-- vector -->
<g id="node2" class="node">
<title>vector</title>
<polygon fill="#ecfccb" stroke="#65a30d" stroke-width="1.4" points="318.5,-325 206.5,-325 206.5,-289 318.5,-289 318.5,-325"/>
<text text-anchor="middle" x="262.5" y="-303.3" font-family="Helvetica,Arial,sans-serif" font-size="14.00">issundb&#45;vector</text>
</g>
<!-- vector&#45;&gt;core -->
<g id="edge1" class="edge">
<title>vector&#45;&gt;core</title>
<path fill="none" stroke="#475569" stroke-width="1.2" d="M206.35,-317.7C189.29,-321.01 170.2,-324.72 152,-328.25"/>
<polygon fill="#475569" stroke="#475569" stroke-width="1.2" points="151.15,-324.85 142,-330.19 152.48,-331.72 151.15,-324.85"/>
</g>
<!-- text -->
<g id="node3" class="node">
<title>text</title>
<polygon fill="#ecfccb" stroke="#65a30d" stroke-width="1.4" points="311,-397 214,-397 214,-361 311,-361 311,-397"/>
<text text-anchor="middle" x="262.5" y="-375.3" font-family="Helvetica,Arial,sans-serif" font-size="14.00">issundb&#45;text</text>
</g>
<!-- text&#45;&gt;core -->
<g id="edge2" class="edge">
<title>text&#45;&gt;core</title>
<path fill="none" stroke="#475569" stroke-width="1.2" d="M213.73,-369.73C194.88,-366.07 172.76,-361.78 151.83,-357.72"/>
<polygon fill="#475569" stroke="#475569" stroke-width="1.2" points="152.48,-354.28 142,-355.81 151.15,-361.15 152.48,-354.28"/>
</g>
<!-- retrieval -->
<g id="node4" class="node">
<title>retrieval</title>
<polygon fill="#d9f99d" stroke="#4d7c0f" stroke-width="1.4" points="523,-325 399,-325 399,-289 523,-289 523,-325"/>
<text text-anchor="middle" x="461" y="-303.3" font-family="Helvetica,Arial,sans-serif" font-size="14.00">issundb&#45;retrieval</text>
</g>
<!-- retrieval&#45;&gt;core -->
<g id="edge3" class="edge">
<title>retrieval&#45;&gt;core</title>
<path fill="none" stroke="#475569" stroke-width="1.2" d="M424.84,-325.17C416.03,-330.41 406.86,-336.48 399,-343 366.28,-370.15 374.72,-397.43 336,-415 276.51,-442 251.72,-433.28 189,-415 175.97,-411.2 163.02,-405.4 150.78,-398.7"/>
<polygon fill="#475569" stroke="#475569" stroke-width="1.2" points="152.42,-395.61 142,-393.68 148.94,-401.68 152.42,-395.61"/>
</g>
<!-- retrieval&#45;&gt;vector -->
<g id="edge4" class="edge">
<title>retrieval&#45;&gt;vector</title>
<path fill="none" stroke="#475569" stroke-width="1.2" d="M398.9,-307C376.63,-307 351.36,-307 328.74,-307"/>
<polygon fill="#475569" stroke="#475569" stroke-width="1.2" points="328.55,-303.5 318.55,-307 328.55,-310.5 328.55,-303.5"/>
</g>
<!-- retrieval&#45;&gt;text -->
<g id="edge5" class="edge">
<title>retrieval&#45;&gt;text</title>
<path fill="none" stroke="#475569" stroke-width="1.2" d="M410.67,-325.08C383.29,-335.11 349.12,-347.63 320.59,-358.08"/>
<polygon fill="#475569" stroke="#475569" stroke-width="1.2" points="319.34,-354.81 311.16,-361.54 321.75,-361.38 319.34,-354.81"/>
</g>
<!-- cypher -->
<g id="node5" class="node">
<title>cypher</title>
<polygon fill="#d9f99d" stroke="#4d7c0f" stroke-width="1.4" points="519,-397 403,-397 403,-361 519,-361 519,-397"/>
<text text-anchor="middle" x="461" y="-375.3" font-family="Helvetica,Arial,sans-serif" font-size="14.00">issundb&#45;cypher</text>
</g>
<!-- cypher&#45;&gt;core -->
<g id="edge6" class="edge">
<title>cypher&#45;&gt;core</title>
<path fill="none" stroke="#475569" stroke-width="1.2" d="M437.43,-397.08C413.77,-414.79 374.7,-440.58 336,-451 272.91,-467.99 249.64,-475.32 189,-451 165.73,-441.67 144.54,-425.01 126.96,-407.52"/>
<polygon fill="#475569" stroke="#475569" stroke-width="1.2" points="129.13,-404.73 119.65,-400 124.11,-409.61 129.13,-404.73"/>
</g>
<!-- facade -->
<g id="node6" class="node">
<title>facade</title>
<polygon fill="#fef3c7" stroke="#d97706" stroke-width="1.4" points="496.5,-226 425.5,-226 425.5,-190 496.5,-190 496.5,-226"/>
<text text-anchor="middle" x="461" y="-204.3" font-family="Helvetica,Arial,sans-serif" font-size="14.00">issundb</text>
</g>
<!-- facade&#45;&gt;core -->
<g id="edge7" class="edge">
<title>facade&#45;&gt;core</title>
<path fill="none" stroke="#475569" stroke-width="1.2" d="M409.5,-212.27C353.65,-218.38 261.92,-232.57 189,-264 166.12,-273.86 143.17,-288.76 123.99,-302.97"/>
<polygon fill="#475569" stroke="#475569" stroke-width="1.2" points="121.87,-300.18 116.01,-309 126.09,-305.77 121.87,-300.18"/>
</g>
<!-- facade&#45;&gt;vector -->
<g id="edge8" class="edge">
<title>facade&#45;&gt;vector</title>
<path fill="none" stroke="#475569" stroke-width="1.2" d="M409.5,-233.44C388.37,-244.09 363.34,-256.7 340.03,-268.45"/>
<polygon fill="#475569" stroke="#475569" stroke-width="1.2" points="338.34,-265.38 330.98,-273 341.49,-271.63 338.34,-265.38"/>
</g>
<!-- cli -->
<g id="node7" class="node">
<title>cli</title>
<polygon fill="#e9d5ff" stroke="#7c3aed" stroke-width="1.4" points="703,-420 615,-420 615,-384 703,-384 703,-420"/>
<text text-anchor="middle" x="659" y="-398.3" font-family="Helvetica,Arial,sans-serif" font-size="14.00">issundb&#45;cli</text>
</g>
<!-- cli&#45;&gt;facade -->
<g id="edge9" class="edge">
<title>cli&#45;&gt;facade</title>
<path fill="none" stroke="#475569" stroke-width="1.2" d="M586,-366C551.27,-330.15 570.65,-302.59 539,-264 533.58,-257.4 527.22,-251.18 520.5,-245.45"/>
<polygon fill="#475569" stroke="#475569" stroke-width="1.2" points="522.47,-242.55 512.5,-238.97 518.07,-247.99 522.47,-242.55"/>
</g>
<!-- server -->
<g id="node8" class="node">
<title>server</title>
<polygon fill="#e9d5ff" stroke="#7c3aed" stroke-width="1.4" points="716,-348 602,-348 602,-312 716,-312 716,-348"/>
<text text-anchor="middle" x="659" y="-326.3" font-family="Helvetica,Arial,sans-serif" font-size="14.00">issundb&#45;server</text>
</g>
<!-- server&#45;&gt;facade -->
<g id="edge10" class="edge">
<title>server&#45;&gt;facade</title>
<path fill="none" stroke="#475569" stroke-width="1.2" d="M586,-294C564.11,-281.03 540.98,-265.52 520.71,-251.27"/>
<polygon fill="#475569" stroke="#475569" stroke-width="1.2" points="522.68,-248.38 512.5,-245.46 518.64,-254.09 522.68,-248.38"/>
</g>
<!-- mcp -->
<g id="node9" class="node">
<title>mcp</title>
<polygon fill="#e9d5ff" stroke="#7c3aed" stroke-width="1.4" points="710,-276 608,-276 608,-240 710,-240 710,-276"/>
<text text-anchor="middle" x="659" y="-254.3" font-family="Helvetica,Arial,sans-serif" font-size="14.00">issundb&#45;mcp</text>
</g>
<!-- mcp&#45;&gt;facade -->
<g id="edge11" class="edge">
<title>mcp&#45;&gt;facade</title>
<path fill="none" stroke="#475569" stroke-width="1.2" d="M586,-239.63C565.09,-234.3 542.47,-228.53 522.35,-223.4"/>
<polygon fill="#475569" stroke="#475569" stroke-width="1.2" points="523.05,-219.96 512.5,-220.88 521.32,-226.74 523.05,-219.96"/>
</g>
<!-- gui -->
<g id="node10" class="node">
<title>gui</title>
<polygon fill="#e9d5ff" stroke="#7c3aed" stroke-width="1.4" points="706,-204 612,-204 612,-168 706,-168 706,-204"/>
<text text-anchor="middle" x="659" y="-182.3" font-family="Helvetica,Arial,sans-serif" font-size="14.00">issundb&#45;gui</text>
</g>
<!-- gui&#45;&gt;facade -->
<g id="edge12" class="edge">
<title>gui&#45;&gt;facade</title>
<path fill="none" stroke="#475569" stroke-width="1.2" d="M586,-194.08C565.24,-196.41 542.8,-198.93 522.8,-201.18"/>
<polygon fill="#475569" stroke="#475569" stroke-width="1.2" points="522.05,-197.74 512.5,-202.33 522.83,-204.69 522.05,-197.74"/>
</g>
<!-- node_bind -->
<g id="node11" class="node">
<title>node_bind</title>
<polygon fill="#e9d5ff" stroke="#7c3aed" stroke-width="1.4" points="712,-132 606,-132 606,-96 712,-96 712,-132"/>
<text text-anchor="middle" x="659" y="-110.3" font-family="Helvetica,Arial,sans-serif" font-size="14.00">issundb&#45;node</text>
</g>
<!-- node_bind&#45;&gt;facade -->
<g id="edge13" class="edge">
<title>node_bind&#45;&gt;facade</title>
<path fill="none" stroke="#475569" stroke-width="1.2" d="M586,-148.53C564.89,-158.66 542.04,-169.61 521.78,-179.33"/>
<polygon fill="#475569" stroke="#475569" stroke-width="1.2" points="520,-176.3 512.5,-183.78 523.03,-182.61 520,-176.3"/>
</g>
<!-- py_bind -->
<g id="node12" class="node">
<title>py_bind</title>
<polygon fill="#e9d5ff" stroke="#7c3aed" stroke-width="1.4" points="704,-60 614,-60 614,-24 704,-24 704,-60"/>
<text text-anchor="middle" x="659" y="-38.3" font-family="Helvetica,Arial,sans-serif" font-size="14.00">issundb&#45;py</text>
</g>
<!-- py_bind&#45;&gt;facade -->
<g id="edge14" class="edge">
<title>py_bind&#45;&gt;facade</title>
<path fill="none" stroke="#475569" stroke-width="1.2" d="M586,-78C551.71,-103.34 518.68,-138.69 495.34,-166.13"/>
<polygon fill="#475569" stroke="#475569" stroke-width="1.2" points="492.48,-164.1 488.73,-174 497.84,-168.6 492.48,-164.1"/>
</g>
<!-- testing -->
<g id="node13" class="node">
<title>testing</title>
<polygon fill="#fce7f3" stroke="#db2777" stroke-width="1.4" points="320,-160 205,-160 205,-124 320,-124 320,-160"/>
<text text-anchor="middle" x="262.5" y="-138.3" font-family="Helvetica,Arial,sans-serif" font-size="14.00">issundb&#45;testing</text>
</g>
<!-- testing&#45;&gt;core -->
<g id="edge15" class="edge">
<title>testing&#45;&gt;core</title>
<path fill="none" stroke="#475569" stroke-width="1.2" stroke-dasharray="5,2" d="M195.94,-199C193.57,-201.33 191.25,-203.67 189,-206 159.77,-236.23 129.61,-273.14 107.81,-301.02"/>
<polygon fill="#475569" stroke="#475569" stroke-width="1.2" points="104.98,-298.96 101.61,-309 110.51,-303.26 104.98,-298.96"/>
</g>
</g>
</svg>
