<?xml version="1.0" encoding="UTF-8" standalone="no"?>
<!DOCTYPE svg PUBLIC "-//W3C//DTD SVG 1.1//EN"
 "http://www.w3.org/Graphics/SVG/1.1/DTD/svg11.dtd">
<!-- Generated by graphviz version 2.43.0 (0)
 -->
<!-- Title: IssunDBArchitecture Pages: 1 -->
<svg width="1970pt" height="548pt"
 viewBox="0.00 0.00 1970.00 548.00" xmlns="http://www.w3.org/2000/svg" xmlns:xlink="http://www.w3.org/1999/xlink">
<g id="graph0" class="graph" transform="scale(1 1) rotate(0) translate(4 544)">
<title>IssunDBArchitecture</title>
<polygon fill="white" stroke="transparent" points="-4,4 -4,-544 1966,-544 1966,4 -4,4"/>
<g id="clust1" class="cluster">
<title>cluster_core</title>
<path fill="white" stroke="#2563eb" stroke-width="1.4" d="M1012,-297C1012,-297 1942,-297 1942,-297 1948,-297 1954,-303 1954,-309 1954,-309 1954,-464 1954,-464 1954,-470 1948,-476 1942,-476 1942,-476 1012,-476 1012,-476 1006,-476 1000,-470 1000,-464 1000,-464 1000,-309 1000,-309 1000,-303 1006,-297 1012,-297"/>
<text text-anchor="middle" x="1477" y="-460.8" font-family="Helvetica,Arial,sans-serif" font-size="14.00">issundb&#45;core (storage engine)</text>
</g>
<g id="clust2" class="cluster">
<title>cluster_ext</title>
<path fill="white" stroke="#65a30d" stroke-width="1.4" d="M263,-310C263,-310 907,-310 907,-310 913,-310 919,-316 919,-322 919,-322 919,-477 919,-477 919,-483 913,-489 907,-489 907,-489 263,-489 263,-489 257,-489 251,-483 251,-477 251,-477 251,-322 251,-322 251,-316 257,-310 263,-310"/>
<text text-anchor="middle" x="585" y="-473.8" font-family="Helvetica,Arial,sans-serif" font-size="14.00">Extension Crates</text>
</g>
<g id="clust3" class="cluster">
<title>cluster_facade</title>
<path fill="white" stroke="#d97706" stroke-width="1.4" d="M245,-187C245,-187 524,-187 524,-187 530,-187 536,-193 536,-199 536,-199 536,-290 536,-290 536,-296 530,-302 524,-302 524,-302 245,-302 245,-302 239,-302 233,-296 233,-290 233,-290 233,-199 233,-199 233,-193 239,-187 245,-187"/>
<text text-anchor="middle" x="384.5" y="-286.8" font-family="Helvetica,Arial,sans-serif" font-size="14.00">Public Facade</text>
</g>
<g id="clust4" class="cluster">
<title>cluster_consumers</title>
<path fill="white" stroke="#7c3aed" stroke-width="1.4" d="M20,-8C20,-8 172,-8 172,-8 178,-8 184,-14 184,-20 184,-20 184,-495 184,-495 184,-501 178,-507 172,-507 172,-507 20,-507 20,-507 14,-507 8,-501 8,-495 8,-495 8,-20 8,-20 8,-14 14,-8 20,-8"/>
<text text-anchor="middle" x="96" y="-491.8" font-family="Helvetica,Arial,sans-serif" font-size="14.00">Consumers (facade only)</text>
</g>
<g id="clust5" class="cluster">
<title>cluster_testing</title>
<path fill="white" stroke="#db2777" stroke-width="1.4" d="M634,-137C634,-137 870,-137 870,-137 876,-137 882,-143 882,-149 882,-149 882,-224 882,-224 882,-230 876,-236 870,-236 870,-236 634,-236 634,-236 628,-236 622,-230 622,-224 622,-224 622,-149 622,-149 622,-143 628,-137 634,-137"/>
<text text-anchor="middle" x="752" y="-220.8" font-family="Helvetica,Arial,sans-serif" font-size="14.00">Test Support</text>
</g>
<!-- core_graph -->
<g id="node1" class="node">
<title>core_graph</title>
<polygon fill="#dbeafe" stroke="#2563eb" stroke-width="1.4" points="1263,-405 1016,-405 1016,-361 1263,-361 1263,-405"/>
<text text-anchor="middle" x="1139.5" y="-386.8" font-family="Helvetica,Arial,sans-serif" font-size="14.00">Graph</text>
<text text-anchor="middle" x="1139.5" y="-371.8" font-family="Helvetica,Arial,sans-serif" font-size="14.00">(node/edge CRUD, adjacency, algos)</text>
</g>
<!-- core_storage -->
<g id="node2" class="node">
<title>core_storage</title>
<polygon fill="#e0f2fe" stroke="#0284c7" stroke-width="1.4" points="1588,-357 1377,-357 1377,-313 1588,-313 1588,-357"/>
<text text-anchor="middle" x="1482.5" y="-338.8" font-family="Helvetica,Arial,sans-serif" font-size="14.00">Storage</text>
<text text-anchor="middle" x="1482.5" y="-323.8" font-family="Helvetica,Arial,sans-serif" font-size="14.00">(LMDB env, 12 sub&#45;databases)</text>
</g>
<!-- core_graph&#45;&gt;core_storage -->
<g id="edge1" class="edge">
<title>core_graph&#45;&gt;core_storage</title>
<path fill="none" stroke="#475569" stroke-width="1.2" d="M1263.13,-365.74C1296.87,-360.99 1333.33,-355.86 1366.62,-351.17"/>
<polygon fill="#475569" stroke="#475569" stroke-width="1.2" points="1367.43,-354.59 1376.85,-349.73 1366.45,-347.66 1367.43,-354.59"/>
<text text-anchor="middle" x="1320" y="-362" font-family="Helvetica,Arial,sans-serif" font-size="10.00" fill="#475569">owns</text>
</g>
<!-- core_csr -->
<g id="node3" class="node">
<title>core_csr</title>
<polygon fill="#f8fafc" stroke="#64748b" stroke-width="1.4" points="1568.5,-437 1396.5,-437 1396.5,-393 1568.5,-393 1568.5,-437"/>
<text text-anchor="middle" x="1482.5" y="-418.8" font-family="Helvetica,Arial,sans-serif" font-size="14.00">CSR snapshot</text>
<text text-anchor="middle" x="1482.5" y="-403.8" font-family="Helvetica,Arial,sans-serif" font-size="14.00">(arc&#45;swap hot read path)</text>
</g>
<!-- core_graph&#45;&gt;core_csr -->
<g id="edge2" class="edge">
<title>core_graph&#45;&gt;core_csr</title>
<path fill="none" stroke="#475569" stroke-width="1.2" d="M1263.13,-394.51C1303.7,-398.32 1348.22,-402.49 1386.41,-406.08"/>
<polygon fill="#475569" stroke="#475569" stroke-width="1.2" points="1386.2,-409.57 1396.49,-407.02 1386.86,-402.6 1386.2,-409.57"/>
<text text-anchor="middle" x="1320" y="-403" font-family="Helvetica,Arial,sans-serif" font-size="10.00" fill="#475569">rebuilds</text>
</g>
<!-- core_gblas -->
<g id="node4" class="node">
<title>core_gblas</title>
<polygon fill="#f8fafc" stroke="#64748b" stroke-width="1.4" points="1938,-437 1720,-437 1720,-393 1938,-393 1938,-437"/>
<text text-anchor="middle" x="1829" y="-418.8" font-family="Helvetica,Arial,sans-serif" font-size="14.00">GraphBLAS</text>
<text text-anchor="middle" x="1829" y="-403.8" font-family="Helvetica,Arial,sans-serif" font-size="14.00">(traversal, analytics, paths, flow)</text>
</g>
<!-- core_csr&#45;&gt;core_gblas -->
<g id="edge3" class="edge">
<title>core_csr&#45;&gt;core_gblas</title>
<path fill="none" stroke="#475569" stroke-width="1.2" d="M1568.66,-415C1611.17,-415 1663.28,-415 1709.61,-415"/>
<polygon fill="#475569" stroke="#475569" stroke-width="1.2" points="1709.71,-418.5 1719.71,-415 1709.71,-411.5 1709.71,-418.5"/>
<text text-anchor="middle" x="1654" y="-418" font-family="Helvetica,Arial,sans-serif" font-size="10.00" fill="#475569">materializes</text>
</g>
<!-- vector -->
<g id="node5" class="node">
<title>vector</title>
<polygon fill="#ecfccb" stroke="#65a30d" stroke-width="1.4" points="903,-370 601,-370 601,-326 903,-326 903,-370"/>
<text text-anchor="middle" x="752" y="-351.8" font-family="Helvetica,Arial,sans-serif" font-size="14.00">issundb&#45;vector</text>
<text text-anchor="middle" x="752" y="-336.8" font-family="Helvetica,Arial,sans-serif" font-size="14.00">VectorGraphExt: upsert_vector, vector_search</text>
</g>
<!-- vector&#45;&gt;core_graph -->
<g id="edge4" class="edge">
<title>vector&#45;&gt;core_graph</title>
<path fill="none" stroke="#475569" stroke-width="1.2" d="M903.15,-361.63C931.68,-364.22 961.52,-366.93 989.99,-369.52"/>
<polygon fill="#475569" stroke="#475569" stroke-width="1.2" points="989.73,-373.01 1000,-370.43 990.36,-366.04 989.73,-373.01"/>
</g>
<!-- text -->
<g id="node6" class="node">
<title>text</title>
<polygon fill="#ecfccb" stroke="#65a30d" stroke-width="1.4" points="889,-450 615,-450 615,-406 889,-406 889,-450"/>
<text text-anchor="middle" x="752" y="-431.8" font-family="Helvetica,Arial,sans-serif" font-size="14.00">issundb&#45;text</text>
<text text-anchor="middle" x="752" y="-416.8" font-family="Helvetica,Arial,sans-serif" font-size="14.00">TextGraphExt / TextIndexExt: text_search</text>
</g>
<!-- text&#45;&gt;core_graph -->
<g id="edge5" class="edge">
<title>text&#45;&gt;core_graph</title>
<path fill="none" stroke="#475569" stroke-width="1.2" d="M889.18,-412.1C921.75,-408.3 956.69,-404.22 989.79,-400.36"/>
<polygon fill="#475569" stroke="#475569" stroke-width="1.2" points="990.48,-403.8 1000,-399.17 989.67,-396.85 990.48,-403.8"/>
</g>
<!-- retrieval -->
<g id="node7" class="node">
<title>retrieval</title>
<polygon fill="#d9f99d" stroke="#4d7c0f" stroke-width="1.4" points="501,-370 268,-370 268,-326 501,-326 501,-370"/>
<text text-anchor="middle" x="384.5" y="-351.8" font-family="Helvetica,Arial,sans-serif" font-size="14.00">issundb&#45;retrieval</text>
<text text-anchor="middle" x="384.5" y="-336.8" font-family="Helvetica,Arial,sans-serif" font-size="14.00">retrieve, retrieve_with &#45;&gt; Subgraph</text>
</g>
<!-- retrieval&#45;&gt;core_graph -->
<g id="edge6" class="edge">
<title>retrieval&#45;&gt;core_graph</title>
<path fill="none" stroke="#475569" stroke-width="1.2" d="M499.75,-370.05C512.5,-374.9 524.88,-380.81 536,-388 574.47,-412.88 559.63,-448.31 601,-468 723.81,-526.45 878.48,-492.28 990.33,-451.18"/>
<polygon fill="#475569" stroke="#475569" stroke-width="1.2" points="991.86,-454.34 1000,-447.57 989.41,-447.79 991.86,-454.34"/>
</g>
<!-- retrieval&#45;&gt;vector -->
<g id="edge7" class="edge">
<title>retrieval&#45;&gt;vector</title>
<path fill="none" stroke="#475569" stroke-width="1.2" d="M501.15,-348C529.61,-348 560.6,-348 590.76,-348"/>
<polygon fill="#475569" stroke="#475569" stroke-width="1.2" points="590.95,-351.5 600.95,-348 590.95,-344.5 590.95,-351.5"/>
</g>
<!-- retrieval&#45;&gt;text -->
<g id="edge8" class="edge">
<title>retrieval&#45;&gt;text</title>
<path fill="none" stroke="#475569" stroke-width="1.2" d="M486.34,-370.07C534.18,-380.54 591.46,-393.08 640.48,-403.81"/>
<polygon fill="#475569" stroke="#475569" stroke-width="1.2" points="639.97,-407.28 650.49,-406 641.47,-400.44 639.97,-407.28"/>
</g>
<!-- cypher -->
<g id="node8" class="node">
<title>cypher</title>
<polygon fill="#d9f99d" stroke="#4d7c0f" stroke-width="1.4" points="502,-450 267,-450 267,-406 502,-406 502,-450"/>
<text text-anchor="middle" x="384.5" y="-431.8" font-family="Helvetica,Arial,sans-serif" font-size="14.00">issundb&#45;cypher</text>
<text text-anchor="middle" x="384.5" y="-416.8" font-family="Helvetica,Arial,sans-serif" font-size="14.00">parser, planner, optimizer, executor</text>
</g>
<!-- cypher&#45;&gt;core_graph -->
<g id="edge9" class="edge">
<title>cypher&#45;&gt;core_graph</title>
<path fill="none" stroke="#475569" stroke-width="1.2" d="M428.68,-450.09C471.23,-470.52 538.72,-499.42 601,-511 739.95,-536.83 779.86,-535.82 919,-511 948.12,-505.81 977.05,-494.55 1003.89,-480.76"/>
<polygon fill="#475569" stroke="#475569" stroke-width="1.2" points="1005.7,-483.76 1012.9,-476 1002.43,-477.58 1005.7,-483.76"/>
<text text-anchor="middle" x="752" y="-532" font-family="Helvetica,Arial,sans-serif" font-size="10.00" fill="#475569">public API</text>
</g>
<!-- facade -->
<g id="node9" class="node">
<title>facade</title>
<polygon fill="#fef3c7" stroke="#d97706" stroke-width="1.4" points="520,-262.5 249,-262.5 249,-203.5 520,-203.5 520,-262.5"/>
<text text-anchor="middle" x="384.5" y="-244.3" font-family="Helvetica,Arial,sans-serif" font-size="14.00">issundb</text>
<text text-anchor="middle" x="384.5" y="-229.3" font-family="Helvetica,Arial,sans-serif" font-size="14.00">re&#45;exports Graph, Error, Hit,</text>
<text text-anchor="middle" x="384.5" y="-214.3" font-family="Helvetica,Arial,sans-serif" font-size="14.00">retrieval + Cypher types, GraphQueryExt</text>
</g>
<!-- facade&#45;&gt;core_graph -->
<g id="edge10" class="edge">
<title>facade&#45;&gt;core_graph</title>
<path fill="none" stroke="#475569" stroke-width="1.2" d="M520.27,-241.54C629.09,-250.49 785.52,-268.03 919,-301 942.4,-306.78 966.73,-314.28 990.3,-322.39"/>
<polygon fill="#475569" stroke="#475569" stroke-width="1.2" points="989.41,-325.78 1000,-325.77 991.71,-319.17 989.41,-325.78"/>
</g>
<!-- facade&#45;&gt;vector -->
<g id="edge11" class="edge">
<title>facade&#45;&gt;vector</title>
<path fill="none" stroke="#475569" stroke-width="1.2" d="M536,-287.22C544.1,-289.91 552.14,-292.52 560,-295 572.9,-299.08 586.34,-303.15 599.86,-307.13"/>
<polygon fill="#475569" stroke="#475569" stroke-width="1.2" points="599.12,-310.56 609.7,-310 601.08,-303.84 599.12,-310.56"/>
</g>
<!-- cli -->
<g id="node10" class="node">
<title>cli</title>
<polygon fill="#e9d5ff" stroke="#7c3aed" stroke-width="1.4" points="140,-468 52,-468 52,-424 140,-424 140,-468"/>
<text text-anchor="middle" x="96" y="-449.8" font-family="Helvetica,Arial,sans-serif" font-size="14.00">issundb&#45;cli</text>
<text text-anchor="middle" x="96" y="-434.8" font-family="Helvetica,Arial,sans-serif" font-size="14.00">REPL</text>
</g>
<!-- cli&#45;&gt;facade -->
<g id="edge12" class="edge">
<title>cli&#45;&gt;facade</title>
<path fill="none" stroke="#475569" stroke-width="1.2" d="M140.07,-433.15C155.4,-426.91 171.86,-418.07 184,-406 217.95,-372.24 199.46,-341.78 226.13,-308.58"/>
<polygon fill="#475569" stroke="#475569" stroke-width="1.2" points="228.88,-310.76 233,-301 223.69,-306.06 228.88,-310.76"/>
</g>
<!-- server -->
<g id="node11" class="node">
<title>server</title>
<polygon fill="#e9d5ff" stroke="#7c3aed" stroke-width="1.4" points="156.5,-388 35.5,-388 35.5,-344 156.5,-344 156.5,-388"/>
<text text-anchor="middle" x="96" y="-369.8" font-family="Helvetica,Arial,sans-serif" font-size="14.00">issundb&#45;server</text>
<text text-anchor="middle" x="96" y="-354.8" font-family="Helvetica,Arial,sans-serif" font-size="14.00">Axum REST /v1</text>
</g>
<!-- server&#45;&gt;facade -->
<g id="edge13" class="edge">
<title>server&#45;&gt;facade</title>
<path fill="none" stroke="#475569" stroke-width="1.2" d="M145.94,-343.92C158.4,-338.19 171.73,-331.95 184,-326 202.56,-317 209,-312.93 223.79,-305.52"/>
<polygon fill="#475569" stroke="#475569" stroke-width="1.2" points="225.56,-308.55 233,-301 222.48,-302.26 225.56,-308.55"/>
</g>
<!-- mcp -->
<g id="node12" class="node">
<title>mcp</title>
<polygon fill="#e9d5ff" stroke="#7c3aed" stroke-width="1.4" points="168,-308 24,-308 24,-264 168,-264 168,-308"/>
<text text-anchor="middle" x="96" y="-289.8" font-family="Helvetica,Arial,sans-serif" font-size="14.00">issundb&#45;mcp</text>
<text text-anchor="middle" x="96" y="-274.8" font-family="Helvetica,Arial,sans-serif" font-size="14.00">MCP (stdio / HTTP)</text>
</g>
<!-- mcp&#45;&gt;facade -->
<g id="edge14" class="edge">
<title>mcp&#45;&gt;facade</title>
<path fill="none" stroke="#475569" stroke-width="1.2" d="M168.19,-272.83C185.1,-269.7 203.82,-266.24 222.96,-262.7"/>
<polygon fill="#475569" stroke="#475569" stroke-width="1.2" points="223.8,-266.1 233,-260.84 222.53,-259.22 223.8,-266.1"/>
</g>
<!-- gui -->
<g id="node13" class="node">
<title>gui</title>
<polygon fill="#e9d5ff" stroke="#7c3aed" stroke-width="1.4" points="147,-228 45,-228 45,-184 147,-184 147,-228"/>
<text text-anchor="middle" x="96" y="-209.8" font-family="Helvetica,Arial,sans-serif" font-size="14.00">issundb&#45;gui</text>
<text text-anchor="middle" x="96" y="-194.8" font-family="Helvetica,Arial,sans-serif" font-size="14.00">egui desktop</text>
</g>
<!-- gui&#45;&gt;facade -->
<g id="edge15" class="edge">
<title>gui&#45;&gt;facade</title>
<path fill="none" stroke="#475569" stroke-width="1.2" d="M147.23,-210.73C168.84,-212.77 195.42,-215.27 222.86,-217.86"/>
<polygon fill="#475569" stroke="#475569" stroke-width="1.2" points="222.72,-221.36 233,-218.82 223.38,-214.39 222.72,-221.36"/>
</g>
<!-- node_bind -->
<g id="node14" class="node">
<title>node_bind</title>
<polygon fill="#e9d5ff" stroke="#7c3aed" stroke-width="1.4" points="149,-148 43,-148 43,-104 149,-104 149,-148"/>
<text text-anchor="middle" x="96" y="-129.8" font-family="Helvetica,Arial,sans-serif" font-size="14.00">issundb&#45;node</text>
<text text-anchor="middle" x="96" y="-114.8" font-family="Helvetica,Arial,sans-serif" font-size="14.00">NAPI&#45;RS</text>
</g>
<!-- node_bind&#45;&gt;facade -->
<g id="edge16" class="edge">
<title>node_bind&#45;&gt;facade</title>
<path fill="none" stroke="#475569" stroke-width="1.2" d="M149.22,-145.5C177.83,-156.19 214.71,-169.96 250.72,-183.41"/>
<polygon fill="#475569" stroke="#475569" stroke-width="1.2" points="249.75,-186.78 260.34,-187 252.2,-180.22 249.75,-186.78"/>
</g>
<!-- py_bind -->
<g id="node15" class="node">
<title>py_bind</title>
<polygon fill="#e9d5ff" stroke="#7c3aed" stroke-width="1.4" points="141,-68 51,-68 51,-24 141,-24 141,-68"/>
<text text-anchor="middle" x="96" y="-49.8" font-family="Helvetica,Arial,sans-serif" font-size="14.00">issundb&#45;py</text>
<text text-anchor="middle" x="96" y="-34.8" font-family="Helvetica,Arial,sans-serif" font-size="14.00">PyO3</text>
</g>
<!-- py_bind&#45;&gt;facade -->
<g id="edge17" class="edge">
<title>py_bind&#45;&gt;facade</title>
<path fill="none" stroke="#475569" stroke-width="1.2" d="M141.26,-64.24C155.24,-70.56 170.54,-78.06 184,-86 231.57,-114.07 281.61,-150.95 319.67,-180.76"/>
<polygon fill="#475569" stroke="#475569" stroke-width="1.2" points="317.58,-183.57 327.6,-187 321.91,-178.07 317.58,-183.57"/>
</g>
<!-- testing -->
<g id="node16" class="node">
<title>testing</title>
<polygon fill="#fce7f3" stroke="#db2777" stroke-width="1.4" points="866,-197 638,-197 638,-153 866,-153 866,-197"/>
<text text-anchor="middle" x="752" y="-178.8" font-family="Helvetica,Arial,sans-serif" font-size="14.00">issundb&#45;testing</text>
<text text-anchor="middle" x="752" y="-163.8" font-family="Helvetica,Arial,sans-serif" font-size="14.00">open_tmp, chain, clique, diamond</text>
</g>
<!-- testing&#45;&gt;core_graph -->
<g id="edge18" class="edge">
<title>testing&#45;&gt;core_graph</title>
<path fill="none" stroke="#475569" stroke-width="1.2" stroke-dasharray="5,2" d="M866.26,-192.5C902.75,-201.08 942.41,-213.67 976,-232 1003.92,-247.23 1030.73,-268.35 1054.25,-289.97"/>
<polygon fill="#475569" stroke="#475569" stroke-width="1.2" points="1052.08,-292.73 1061.77,-297 1056.86,-287.62 1052.08,-292.73"/>
<text text-anchor="middle" x="959.5" y="-235" font-family="Helvetica,Arial,sans-serif" font-size="10.00" fill="#475569">fixtures</text>
</g>
</g>
</svg>
